solid Default
  facet normal 0.000000e+00 -1.000000e+00 1.224647e-16
    outer loop
      vertex -4.000000e+01 -4.000000e+01 1.065814e-14
      vertex 4.000000e+01 -4.000000e+01 1.065814e-14
      vertex -4.000000e+01 -4.000000e+01 4.000000e+01
    endloop
  endfacet
  facet normal 0.000000e+00 -1.000000e+00 1.224647e-16
    outer loop
      vertex 4.000000e+01 -4.000000e+01 4.000000e+01
      vertex -4.000000e+01 -4.000000e+01 4.000000e+01
      vertex 4.000000e+01 -4.000000e+01 1.065814e-14
    endloop
  endfacet
  facet normal 1.000000e+00 0.000000e+00 0.000000e+00
    outer loop
      vertex 4.000000e+01 -4.000000e+01 1.065814e-14
      vertex 4.000000e+01 4.000000e+01 0.000000e+00
      vertex 4.000000e+01 -4.000000e+01 4.000000e+01
    endloop
  endfacet
  facet normal 1.000000e+00 0.000000e+00 0.000000e+00
    outer loop
      vertex 4.000000e+01 4.000000e+01 4.000000e+01
      vertex 4.000000e+01 -4.000000e+01 4.000000e+01
      vertex 4.000000e+01 4.000000e+01 0.000000e+00
    endloop
  endfacet
  facet normal -0.000000e+00 1.000000e+00 -1.224647e-16
    outer loop
      vertex 4.000000e+01 4.000000e+01 0.000000e+00
      vertex -4.000000e+01 4.000000e+01 0.000000e+00
      vertex 4.000000e+01 4.000000e+01 4.000000e+01
    endloop
  endfacet
  facet normal 0.000000e+00 1.000000e+00 -1.224647e-16
    outer loop
      vertex -4.000000e+01 4.000000e+01 4.000000e+01
      vertex 4.000000e+01 4.000000e+01 4.000000e+01
      vertex -4.000000e+01 4.000000e+01 0.000000e+00
    endloop
  endfacet
  facet normal -1.000000e+00 -0.000000e+00 0.000000e+00
    outer loop
      vertex -4.000000e+01 4.000000e+01 0.000000e+00
      vertex -4.000000e+01 -4.000000e+01 1.065814e-14
      vertex -4.000000e+01 4.000000e+01 4.000000e+01
    endloop
  endfacet
  facet normal -1.000000e+00 -0.000000e+00 0.000000e+00
    outer loop
      vertex -4.000000e+01 4.000000e+01 4.000000e+01
      vertex -4.000000e+01 -4.000000e+01 1.065814e-14
      vertex -4.000000e+01 -4.000000e+01 4.000000e+01
    endloop
  endfacet
  facet normal 0.000000e+00 1.224647e-16 1.000000e+00
    outer loop
      vertex -4.000000e+01 4.000000e+01 4.000000e+01
      vertex -4.000000e+01 -4.000000e+01 4.000000e+01
      vertex -3.800000e+01 3.800000e+01 4.000000e+01
    endloop
  endfacet
  facet normal -0.000000e+00 1.224647e-16 1.000000e+00
    outer loop
      vertex -3.800000e+01 -3.800000e+01 4.000000e+01
      vertex -3.800000e+01 3.800000e+01 4.000000e+01
      vertex -4.000000e+01 -4.000000e+01 4.000000e+01
    endloop
  endfacet
  facet normal 0.000000e+00 1.224647e-16 1.000000e+00
    outer loop
      vertex -4.000000e+01 -4.000000e+01 4.000000e+01
      vertex 4.000000e+01 -4.000000e+01 4.000000e+01
      vertex -3.800000e+01 -3.800000e+01 4.000000e+01
    endloop
  endfacet
  facet normal 0.000000e+00 1.224647e-16 1.000000e+00
    outer loop
      vertex 3.800000e+01 -3.800000e+01 4.000000e+01
      vertex -3.800000e+01 -3.800000e+01 4.000000e+01
      vertex 4.000000e+01 -4.000000e+01 4.000000e+01
    endloop
  endfacet
  facet normal 0.000000e+00 1.224647e-16 1.000000e+00
    outer loop
      vertex 4.000000e+01 -4.000000e+01 4.000000e+01
      vertex 4.000000e+01 4.000000e+01 4.000000e+01
      vertex 3.800000e+01 -3.800000e+01 4.000000e+01
    endloop
  endfacet
  facet normal 0.000000e+00 1.224647e-16 1.000000e+00
    outer loop
      vertex 3.800000e+01 3.800000e+01 4.000000e+01
      vertex 3.800000e+01 -3.800000e+01 4.000000e+01
      vertex 4.000000e+01 4.000000e+01 4.000000e+01
    endloop
  endfacet
  facet normal 0.000000e+00 1.224647e-16 1.000000e+00
    outer loop
      vertex 4.000000e+01 4.000000e+01 4.000000e+01
      vertex -4.000000e+01 4.000000e+01 4.000000e+01
      vertex 3.800000e+01 3.800000e+01 4.000000e+01
    endloop
  endfacet
  facet normal 0.000000e+00 1.224647e-16 1.000000e+00
    outer loop
      vertex -3.800000e+01 3.800000e+01 4.000000e+01
      vertex 3.800000e+01 3.800000e+01 4.000000e+01
      vertex -4.000000e+01 4.000000e+01 4.000000e+01
    endloop
  endfacet
  facet normal 1.000000e+00 0.000000e+00 0.000000e+00
    outer loop
      vertex -3.800000e+01 -2.850000e+01 2.050000e+00
      vertex -3.800000e+01 2.850000e+01 2.050000e+00
      vertex -3.800000e+01 -2.850000e+01 2.650000e+01
    endloop
  endfacet
  facet normal 1.000000e+00 0.000000e+00 0.000000e+00
    outer loop
      vertex -3.800000e+01 2.850000e+01 2.050000e+00
      vertex -3.800000e+01 2.850000e+01 2.650000e+01
      vertex -3.800000e+01 -2.850000e+01 2.650000e+01
    endloop
  endfacet
  facet normal 1.000000e+00 0.000000e+00 0.000000e+00
    outer loop
      vertex -3.800000e+01 3.800000e+01 2.650000e+01
      vertex -3.800000e+01 3.800000e+01 4.000000e+01
      vertex -3.800000e+01 2.850000e+01 2.650000e+01
    endloop
  endfacet
  facet normal 1.000000e+00 0.000000e+00 0.000000e+00
    outer loop
      vertex -3.800000e+01 2.850000e+01 2.650000e+01
      vertex -3.800000e+01 3.800000e+01 4.000000e+01
      vertex -3.800000e+01 -2.850000e+01 2.650000e+01
    endloop
  endfacet
  facet normal 1.000000e+00 0.000000e+00 0.000000e+00
    outer loop
      vertex -3.800000e+01 3.800000e+01 4.000000e+01
      vertex -3.800000e+01 -3.800000e+01 4.000000e+01
      vertex -3.800000e+01 -2.850000e+01 2.650000e+01
    endloop
  endfacet
  facet normal 1.000000e+00 0.000000e+00 0.000000e+00
    outer loop
      vertex -3.800000e+01 -3.800000e+01 2.650000e+01
      vertex -3.800000e+01 -2.850000e+01 2.650000e+01
      vertex -3.800000e+01 -3.800000e+01 4.000000e+01
    endloop
  endfacet
  facet normal -0.000000e+00 1.000000e+00 -1.224647e-16
    outer loop
      vertex 2.850000e+01 -3.800000e+01 2.050000e+00
      vertex -2.850000e+01 -3.800000e+01 2.050000e+00
      vertex 2.850000e+01 -3.800000e+01 2.650000e+01
    endloop
  endfacet
  facet normal 0.000000e+00 1.000000e+00 -1.224647e-16
    outer loop
      vertex -2.850000e+01 -3.800000e+01 2.050000e+00
      vertex -2.850000e+01 -3.800000e+01 2.650000e+01
      vertex 2.850000e+01 -3.800000e+01 2.650000e+01
    endloop
  endfacet
  facet normal 0.000000e+00 1.000000e+00 -1.224647e-16
    outer loop
      vertex -3.800000e+01 -3.800000e+01 2.650000e+01
      vertex -3.800000e+01 -3.800000e+01 4.000000e+01
      vertex -2.850000e+01 -3.800000e+01 2.650000e+01
    endloop
  endfacet
  facet normal 0.000000e+00 1.000000e+00 -1.224647e-16
    outer loop
      vertex -2.850000e+01 -3.800000e+01 2.650000e+01
      vertex -3.800000e+01 -3.800000e+01 4.000000e+01
      vertex 2.850000e+01 -3.800000e+01 2.650000e+01
    endloop
  endfacet
  facet normal 0.000000e+00 1.000000e+00 -1.224647e-16
    outer loop
      vertex -3.800000e+01 -3.800000e+01 4.000000e+01
      vertex 3.800000e+01 -3.800000e+01 4.000000e+01
      vertex 2.850000e+01 -3.800000e+01 2.650000e+01
    endloop
  endfacet
  facet normal -0.000000e+00 1.000000e+00 -1.224647e-16
    outer loop
      vertex 3.800000e+01 -3.800000e+01 2.650000e+01
      vertex 2.850000e+01 -3.800000e+01 2.650000e+01
      vertex 3.800000e+01 -3.800000e+01 4.000000e+01
    endloop
  endfacet
  facet normal -1.000000e+00 -0.000000e+00 0.000000e+00
    outer loop
      vertex 3.800000e+01 2.850000e+01 2.050000e+00
      vertex 3.800000e+01 -2.850000e+01 2.050000e+00
      vertex 3.800000e+01 2.850000e+01 2.650000e+01
    endloop
  endfacet
  facet normal -1.000000e+00 0.000000e+00 0.000000e+00
    outer loop
      vertex 3.800000e+01 -2.850000e+01 2.050000e+00
      vertex 3.800000e+01 -2.850000e+01 2.650000e+01
      vertex 3.800000e+01 2.850000e+01 2.650000e+01
    endloop
  endfacet
  facet normal -1.000000e+00 0.000000e+00 0.000000e+00
    outer loop
      vertex 3.800000e+01 -3.800000e+01 2.650000e+01
      vertex 3.800000e+01 -3.800000e+01 4.000000e+01
      vertex 3.800000e+01 -2.850000e+01 2.650000e+01
    endloop
  endfacet
  facet normal -1.000000e+00 0.000000e+00 0.000000e+00
    outer loop
      vertex 3.800000e+01 -2.850000e+01 2.650000e+01
      vertex 3.800000e+01 -3.800000e+01 4.000000e+01
      vertex 3.800000e+01 2.850000e+01 2.650000e+01
    endloop
  endfacet
  facet normal -1.000000e+00 -0.000000e+00 0.000000e+00
    outer loop
      vertex 3.800000e+01 -3.800000e+01 4.000000e+01
      vertex 3.800000e+01 3.800000e+01 4.000000e+01
      vertex 3.800000e+01 2.850000e+01 2.650000e+01
    endloop
  endfacet
  facet normal -1.000000e+00 -0.000000e+00 0.000000e+00
    outer loop
      vertex 3.800000e+01 3.800000e+01 2.650000e+01
      vertex 3.800000e+01 2.850000e+01 2.650000e+01
      vertex 3.800000e+01 3.800000e+01 4.000000e+01
    endloop
  endfacet
  facet normal 0.000000e+00 -1.000000e+00 1.224647e-16
    outer loop
      vertex -2.850000e+01 3.800000e+01 2.050000e+00
      vertex 2.850000e+01 3.800000e+01 2.050000e+00
      vertex -2.850000e+01 3.800000e+01 2.650000e+01
    endloop
  endfacet
  facet normal 0.000000e+00 -1.000000e+00 1.224647e-16
    outer loop
      vertex 2.850000e+01 3.800000e+01 2.050000e+00
      vertex 2.850000e+01 3.800000e+01 2.650000e+01
      vertex -2.850000e+01 3.800000e+01 2.650000e+01
    endloop
  endfacet
  facet normal 0.000000e+00 -1.000000e+00 1.224647e-16
    outer loop
      vertex 3.800000e+01 3.800000e+01 2.650000e+01
      vertex 3.800000e+01 3.800000e+01 4.000000e+01
      vertex 2.850000e+01 3.800000e+01 2.650000e+01
    endloop
  endfacet
  facet normal 0.000000e+00 -1.000000e+00 1.224647e-16
    outer loop
      vertex 2.850000e+01 3.800000e+01 2.650000e+01
      vertex 3.800000e+01 3.800000e+01 4.000000e+01
      vertex -2.850000e+01 3.800000e+01 2.650000e+01
    endloop
  endfacet
  facet normal 0.000000e+00 -1.000000e+00 1.224647e-16
    outer loop
      vertex 3.800000e+01 3.800000e+01 4.000000e+01
      vertex -3.800000e+01 3.800000e+01 4.000000e+01
      vertex -2.850000e+01 3.800000e+01 2.650000e+01
    endloop
  endfacet
  facet normal 0.000000e+00 -1.000000e+00 1.224647e-16
    outer loop
      vertex -3.800000e+01 3.800000e+01 2.650000e+01
      vertex -2.850000e+01 3.800000e+01 2.650000e+01
      vertex -3.800000e+01 3.800000e+01 4.000000e+01
    endloop
  endfacet
  facet normal 0.000000e+00 1.224647e-16 1.000000e+00
    outer loop
      vertex -3.800000e+01 2.850000e+01 2.050000e+00
      vertex -3.800000e+01 -2.850000e+01 2.050000e+00
      vertex -2.850000e+01 2.850000e+01 2.050000e+00
    endloop
  endfacet
  facet normal 0.000000e+00 1.224647e-16 1.000000e+00
    outer loop
      vertex -3.800000e+01 -2.850000e+01 2.050000e+00
      vertex -2.850000e+01 -2.850000e+01 2.050000e+00
      vertex -2.850000e+01 2.850000e+01 2.050000e+00
    endloop
  endfacet
  facet normal 0.000000e+00 1.224647e-16 1.000000e+00
    outer loop
      vertex -2.850000e+01 -3.800000e+01 2.050000e+00
      vertex 2.850000e+01 -3.800000e+01 2.050000e+00
      vertex -2.850000e+01 -2.850000e+01 2.050000e+00
    endloop
  endfacet
  facet normal 0.000000e+00 1.224647e-16 1.000000e+00
    outer loop
      vertex 3.800000e+01 2.850000e+01 2.050000e+00
      vertex 2.850000e+01 2.850000e+01 2.050000e+00
      vertex 3.800000e+01 -2.850000e+01 2.050000e+00
    endloop
  endfacet
  facet normal -0.000000e+00 1.224647e-16 1.000000e+00
    outer loop
      vertex 2.850000e+01 2.850000e+01 2.050000e+00
      vertex 2.850000e+01 3.800000e+01 2.050000e+00
      vertex -2.850000e+01 2.850000e+01 2.050000e+00
    endloop
  endfacet
  facet normal 0.000000e+00 1.224647e-16 1.000000e+00
    outer loop
      vertex -2.850000e+01 3.800000e+01 2.050000e+00
      vertex -2.850000e+01 2.850000e+01 2.050000e+00
      vertex 2.850000e+01 3.800000e+01 2.050000e+00
    endloop
  endfacet
  facet normal -0.000000e+00 1.224647e-16 1.000000e+00
    outer loop
      vertex -2.850000e+01 2.850000e+01 2.650000e+01
      vertex -2.850000e+01 3.800000e+01 2.650000e+01
      vertex -3.800000e+01 2.850000e+01 2.650000e+01
    endloop
  endfacet
  facet normal 0.000000e+00 -1.000000e+00 1.224647e-16
    outer loop
      vertex -2.850000e+01 2.850000e+01 2.650000e+01
      vertex -3.800000e+01 2.850000e+01 2.650000e+01
      vertex -2.850000e+01 2.850000e+01 2.050000e+00
    endloop
  endfacet
  facet normal 0.000000e+00 -1.000000e+00 1.224647e-16
    outer loop
      vertex -3.800000e+01 2.850000e+01 2.050000e+00
      vertex -2.850000e+01 2.850000e+01 2.050000e+00
      vertex -3.800000e+01 2.850000e+01 2.650000e+01
    endloop
  endfacet
  facet normal 0.000000e+00 1.224647e-16 1.000000e+00
    outer loop
      vertex -3.800000e+01 3.800000e+01 2.650000e+01
      vertex -3.800000e+01 2.850000e+01 2.650000e+01
      vertex -2.850000e+01 3.800000e+01 2.650000e+01
    endloop
  endfacet
  facet normal 1.000000e+00 0.000000e+00 0.000000e+00
    outer loop
      vertex -2.850000e+01 2.850000e+01 2.650000e+01
      vertex -2.850000e+01 2.850000e+01 2.050000e+00
      vertex -2.850000e+01 3.800000e+01 2.650000e+01
    endloop
  endfacet
  facet normal 1.000000e+00 0.000000e+00 0.000000e+00
    outer loop
      vertex -2.850000e+01 3.800000e+01 2.050000e+00
      vertex -2.850000e+01 3.800000e+01 2.650000e+01
      vertex -2.850000e+01 2.850000e+01 2.050000e+00
    endloop
  endfacet
  facet normal 0.000000e+00 1.224647e-16 1.000000e+00
    outer loop
      vertex 2.850000e+01 2.850000e+01 2.650000e+01
      vertex 3.800000e+01 2.850000e+01 2.650000e+01
      vertex 2.850000e+01 3.800000e+01 2.650000e+01
    endloop
  endfacet
  facet normal 0.000000e+00 1.224647e-16 1.000000e+00
    outer loop
      vertex 3.800000e+01 3.800000e+01 2.650000e+01
      vertex 2.850000e+01 3.800000e+01 2.650000e+01
      vertex 3.800000e+01 2.850000e+01 2.650000e+01
    endloop
  endfacet
  facet normal 0.000000e+00 -1.000000e+00 1.224647e-16
    outer loop
      vertex 3.800000e+01 2.850000e+01 2.050000e+00
      vertex 3.800000e+01 2.850000e+01 2.650000e+01
      vertex 2.850000e+01 2.850000e+01 2.050000e+00
    endloop
  endfacet
  facet normal -1.000000e+00 -0.000000e+00 0.000000e+00
    outer loop
      vertex 2.850000e+01 3.800000e+01 2.050000e+00
      vertex 2.850000e+01 2.850000e+01 2.050000e+00
      vertex 2.850000e+01 3.800000e+01 2.650000e+01
    endloop
  endfacet
  facet normal 0.000000e+00 -1.000000e+00 1.224647e-16
    outer loop
      vertex 2.850000e+01 2.850000e+01 2.650000e+01
      vertex 2.850000e+01 2.850000e+01 2.050000e+00
      vertex 3.800000e+01 2.850000e+01 2.650000e+01
    endloop
  endfacet
  facet normal -1.000000e+00 -0.000000e+00 0.000000e+00
    outer loop
      vertex 2.850000e+01 2.850000e+01 2.650000e+01
      vertex 2.850000e+01 3.800000e+01 2.650000e+01
      vertex 2.850000e+01 2.850000e+01 2.050000e+00
    endloop
  endfacet
  facet normal 0.000000e+00 1.224647e-16 1.000000e+00
    outer loop
      vertex 2.850000e+01 -2.850000e+01 2.650000e+01
      vertex 2.850000e+01 -3.800000e+01 2.650000e+01
      vertex 3.800000e+01 -2.850000e+01 2.650000e+01
    endloop
  endfacet
  facet normal 0.000000e+00 1.000000e+00 -1.224647e-16
    outer loop
      vertex 2.850000e+01 -2.850000e+01 2.650000e+01
      vertex 3.800000e+01 -2.850000e+01 2.650000e+01
      vertex 2.850000e+01 -2.850000e+01 2.050000e+00
    endloop
  endfacet
  facet normal -0.000000e+00 1.000000e+00 -1.224647e-16
    outer loop
      vertex 3.800000e+01 -2.850000e+01 2.050000e+00
      vertex 2.850000e+01 -2.850000e+01 2.050000e+00
      vertex 3.800000e+01 -2.850000e+01 2.650000e+01
    endloop
  endfacet
  facet normal -1.000000e+00 0.000000e+00 0.000000e+00
    outer loop
      vertex 2.850000e+01 -3.800000e+01 2.050000e+00
      vertex 2.850000e+01 -3.800000e+01 2.650000e+01
      vertex 2.850000e+01 -2.850000e+01 2.050000e+00
    endloop
  endfacet
  facet normal -0.000000e+00 1.224647e-16 1.000000e+00
    outer loop
      vertex 3.800000e+01 -3.800000e+01 2.650000e+01
      vertex 3.800000e+01 -2.850000e+01 2.650000e+01
      vertex 2.850000e+01 -3.800000e+01 2.650000e+01
    endloop
  endfacet
  facet normal -1.000000e+00 -0.000000e+00 0.000000e+00
    outer loop
      vertex 2.850000e+01 -2.850000e+01 2.650000e+01
      vertex 2.850000e+01 -2.850000e+01 2.050000e+00
      vertex 2.850000e+01 -3.800000e+01 2.650000e+01
    endloop
  endfacet
  facet normal 0.000000e+00 1.224647e-16 1.000000e+00
    outer loop
      vertex -2.850000e+01 -2.850000e+01 2.650000e+01
      vertex -3.800000e+01 -2.850000e+01 2.650000e+01
      vertex -2.850000e+01 -3.800000e+01 2.650000e+01
    endloop
  endfacet
  facet normal 1.000000e+00 0.000000e+00 0.000000e+00
    outer loop
      vertex -2.850000e+01 -2.850000e+01 2.650000e+01
      vertex -2.850000e+01 -3.800000e+01 2.650000e+01
      vertex -2.850000e+01 -2.850000e+01 2.050000e+00
    endloop
  endfacet
  facet normal 0.000000e+00 1.000000e+00 -1.224647e-16
    outer loop
      vertex -2.850000e+01 -2.850000e+01 2.650000e+01
      vertex -2.850000e+01 -2.850000e+01 2.050000e+00
      vertex -3.800000e+01 -2.850000e+01 2.650000e+01
    endloop
  endfacet
  facet normal 0.000000e+00 1.000000e+00 -1.224647e-16
    outer loop
      vertex -3.800000e+01 -2.850000e+01 2.050000e+00
      vertex -3.800000e+01 -2.850000e+01 2.650000e+01
      vertex -2.850000e+01 -2.850000e+01 2.050000e+00
    endloop
  endfacet
  facet normal 0.000000e+00 1.224647e-16 1.000000e+00
    outer loop
      vertex -3.800000e+01 -3.800000e+01 2.650000e+01
      vertex -2.850000e+01 -3.800000e+01 2.650000e+01
      vertex -3.800000e+01 -2.850000e+01 2.650000e+01
    endloop
  endfacet
  facet normal 1.000000e+00 0.000000e+00 0.000000e+00
    outer loop
      vertex -2.850000e+01 -3.800000e+01 2.050000e+00
      vertex -2.850000e+01 -2.850000e+01 2.050000e+00
      vertex -2.850000e+01 -3.800000e+01 2.650000e+01
    endloop
  endfacet
  facet normal 0.000000e+00 1.224647e-16 1.000000e+00
    outer loop
      vertex 2.850000e+01 -3.800000e+01 2.050000e+00
      vertex 2.850000e+01 -2.850000e+01 2.050000e+00
      vertex 2.003940e+01 -2.003940e+01 2.050000e+00
    endloop
  endfacet
  facet normal 0.000000e+00 1.224647e-16 1.000000e+00
    outer loop
      vertex 2.850000e+01 -3.800000e+01 2.050000e+00
      vertex 2.003940e+01 -2.003940e+01 2.050000e+00
      vertex 1.585640e+01 -2.324910e+01 2.050000e+00
    endloop
  endfacet
  facet normal 0.000000e+00 1.224647e-16 1.000000e+00
    outer loop
      vertex -2.850000e+01 2.850000e+01 2.050000e+00
      vertex -2.061030e+01 1.929540e+01 2.050000e+00
      vertex -2.003940e+01 2.003940e+01 2.050000e+00
    endloop
  endfacet
  facet normal 0.000000e+00 1.224647e-16 1.000000e+00
    outer loop
      vertex 3.800000e+01 -2.850000e+01 2.050000e+00
      vertex 2.324910e+01 -1.585640e+01 2.050000e+00
      vertex 2.003940e+01 -2.003940e+01 2.050000e+00
    endloop
  endfacet
  facet normal 0.000000e+00 1.224647e-16 1.000000e+00
    outer loop
      vertex 3.800000e+01 -2.850000e+01 2.050000e+00
      vertex 2.003940e+01 -2.003940e+01 2.050000e+00
      vertex 2.850000e+01 -2.850000e+01 2.050000e+00
    endloop
  endfacet
  facet normal 0.000000e+00 1.224647e-16 1.000000e+00
    outer loop
      vertex -2.850000e+01 2.850000e+01 2.050000e+00
      vertex -2.003940e+01 2.003940e+01 2.050000e+00
      vertex -1.929540e+01 2.061030e+01 2.050000e+00
    endloop
  endfacet
  facet normal 1.305300e-01 9.914444e-01 -1.214169e-16
    outer loop
      vertex 5.209586e-07 -2.834000e+01 8.881784e-15
      vertex -7.335000e+00 -2.737430e+01 8.881784e-15
      vertex -7.335000e+00 -2.737430e+01 2.050000e+00
    endloop
  endfacet
  facet normal 1.305300e-01 9.914444e-01 -1.214169e-16
    outer loop
      vertex 5.209586e-07 -2.834000e+01 8.881784e-15
      vertex -7.335000e+00 -2.737430e+01 2.050000e+00
      vertex 5.209586e-07 -2.834000e+01 2.050000e+00
    endloop
  endfacet
  facet normal 3.826778e-01 9.238818e-01 -1.131429e-16
    outer loop
      vertex -7.335000e+00 -2.737430e+01 8.881784e-15
      vertex -1.417000e+01 -2.454320e+01 7.993606e-15
      vertex -1.417000e+01 -2.454320e+01 2.050000e+00
    endloop
  endfacet
  facet normal 3.826778e-01 9.238818e-01 -1.131429e-16
    outer loop
      vertex -7.335000e+00 -2.737430e+01 8.881784e-15
      vertex -1.417000e+01 -2.454320e+01 2.050000e+00
      vertex -7.335000e+00 -2.737430e+01 2.050000e+00
    endloop
  endfacet
  facet normal 6.087658e-01 7.933500e-01 -9.715735e-17
    outer loop
      vertex -1.417000e+01 -2.454320e+01 7.993606e-15
      vertex -2.003940e+01 -2.003940e+01 7.993606e-15
      vertex -2.003940e+01 -2.003940e+01 2.050000e+00
    endloop
  endfacet
  facet normal 6.087658e-01 7.933500e-01 -9.715735e-17
    outer loop
      vertex -1.417000e+01 -2.454320e+01 7.993606e-15
      vertex -2.003940e+01 -2.003940e+01 2.050000e+00
      vertex -1.417000e+01 -2.454320e+01 2.050000e+00
    endloop
  endfacet
  facet normal 7.933500e-01 6.087658e-01 -7.455231e-17
    outer loop
      vertex -2.003940e+01 -2.003940e+01 7.993606e-15
      vertex -2.454320e+01 -1.417000e+01 7.105427e-15
      vertex -2.454320e+01 -1.417000e+01 2.050000e+00
    endloop
  endfacet
  facet normal 7.933500e-01 6.087658e-01 -7.455231e-17
    outer loop
      vertex -2.003940e+01 -2.003940e+01 7.993606e-15
      vertex -2.454320e+01 -1.417000e+01 2.050000e+00
      vertex -2.003940e+01 -2.003940e+01 2.050000e+00
    endloop
  endfacet
  facet normal 9.238818e-01 3.826778e-01 -4.686452e-17
    outer loop
      vertex -2.454320e+01 -1.417000e+01 7.105427e-15
      vertex -2.737430e+01 -7.335000e+00 6.217249e-15
      vertex -2.737430e+01 -7.335000e+00 2.050000e+00
    endloop
  endfacet
  facet normal 9.238818e-01 3.826778e-01 -4.686452e-17
    outer loop
      vertex -2.454320e+01 -1.417000e+01 7.105427e-15
      vertex -2.737430e+01 -7.335000e+00 2.050000e+00
      vertex -2.454320e+01 -1.417000e+01 2.050000e+00
    endloop
  endfacet
  facet normal 9.914444e-01 1.305300e-01 -1.598531e-17
    outer loop
      vertex -2.737430e+01 -7.335000e+00 6.217249e-15
      vertex -2.834000e+01 5.209586e-07 5.329071e-15
      vertex -2.834000e+01 5.209586e-07 2.050000e+00
    endloop
  endfacet
  facet normal 9.914444e-01 1.305300e-01 -1.598531e-17
    outer loop
      vertex -2.737430e+01 -7.335000e+00 6.217249e-15
      vertex -2.834000e+01 5.209586e-07 2.050000e+00
      vertex -2.737430e+01 -7.335000e+00 2.050000e+00
    endloop
  endfacet
  facet normal 9.914441e-01 -1.305317e-01 1.598553e-17
    outer loop
      vertex -2.834000e+01 5.209586e-07 5.329071e-15
      vertex -2.737430e+01 7.334901e+00 4.440892e-15
      vertex -2.737430e+01 7.334901e+00 2.050000e+00
    endloop
  endfacet
  facet normal 9.914441e-01 -1.305317e-01 1.598553e-17
    outer loop
      vertex -2.834000e+01 5.209586e-07 5.329071e-15
      vertex -2.737430e+01 7.334901e+00 2.050000e+00
      vertex -2.834000e+01 5.209586e-07 2.050000e+00
    endloop
  endfacet
  facet normal 9.238838e-01 -3.826731e-01 4.686394e-17
    outer loop
      vertex -2.737430e+01 7.334901e+00 4.440892e-15
      vertex -2.454320e+01 1.417000e+01 3.552714e-15
      vertex -2.454320e+01 1.417000e+01 2.050000e+00
    endloop
  endfacet
  facet normal 9.238838e-01 -3.826731e-01 4.686394e-17
    outer loop
      vertex -2.737430e+01 7.334901e+00 4.440892e-15
      vertex -2.454320e+01 1.417000e+01 2.050000e+00
      vertex -2.737430e+01 7.334901e+00 2.050000e+00
    endloop
  endfacet
  facet normal 3.826777e-01 -9.238819e-01 1.131429e-16
    outer loop
      vertex -1.417000e+01 2.454320e+01 2.664535e-15
      vertex -7.335000e+00 2.737430e+01 1.776357e-15
      vertex -7.335000e+00 2.737430e+01 2.050000e+00
    endloop
  endfacet
  facet normal 3.826777e-01 -9.238819e-01 1.131429e-16
    outer loop
      vertex -1.417000e+01 2.454320e+01 2.664535e-15
      vertex -7.335000e+00 2.737430e+01 2.050000e+00
      vertex -1.417000e+01 2.454320e+01 2.050000e+00
    endloop
  endfacet
  facet normal 1.305300e-01 -9.914444e-01 1.214169e-16
    outer loop
      vertex -7.335000e+00 2.737430e+01 1.776357e-15
      vertex 5.209586e-07 2.834000e+01 1.776357e-15
      vertex 5.209586e-07 2.834000e+01 2.050000e+00
    endloop
  endfacet
  facet normal 1.305300e-01 -9.914444e-01 1.214169e-16
    outer loop
      vertex -7.335000e+00 2.737430e+01 1.776357e-15
      vertex 5.209586e-07 2.834000e+01 2.050000e+00
      vertex -7.335000e+00 2.737430e+01 2.050000e+00
    endloop
  endfacet
  facet normal -1.305317e-01 -9.914441e-01 1.214169e-16
    outer loop
      vertex 5.209586e-07 2.834000e+01 1.776357e-15
      vertex 7.334901e+00 2.737430e+01 1.776357e-15
      vertex 7.334901e+00 2.737430e+01 2.050000e+00
    endloop
  endfacet
  facet normal -1.305317e-01 -9.914441e-01 1.214169e-16
    outer loop
      vertex 5.209586e-07 2.834000e+01 1.776357e-15
      vertex 7.334901e+00 2.737430e+01 2.050000e+00
      vertex 5.209586e-07 2.834000e+01 2.050000e+00
    endloop
  endfacet
  facet normal -3.826729e-01 -9.238839e-01 1.131431e-16
    outer loop
      vertex 7.334901e+00 2.737430e+01 1.776357e-15
      vertex 1.417000e+01 2.454320e+01 2.664535e-15
      vertex 1.417000e+01 2.454320e+01 2.050000e+00
    endloop
  endfacet
  facet normal -3.826729e-01 -9.238839e-01 1.131431e-16
    outer loop
      vertex 7.334901e+00 2.737430e+01 1.776357e-15
      vertex 1.417000e+01 2.454320e+01 2.050000e+00
      vertex 7.334901e+00 2.737430e+01 2.050000e+00
    endloop
  endfacet
  facet normal -6.087657e-01 -7.933500e-01 9.715735e-17
    outer loop
      vertex 1.417000e+01 2.454320e+01 2.664535e-15
      vertex 2.003940e+01 2.003940e+01 2.664535e-15
      vertex 2.003940e+01 2.003940e+01 2.050000e+00
    endloop
  endfacet
  facet normal -6.087657e-01 -7.933500e-01 9.715735e-17
    outer loop
      vertex 1.417000e+01 2.454320e+01 2.664535e-15
      vertex 2.003940e+01 2.003940e+01 2.050000e+00
      vertex 1.417000e+01 2.454320e+01 2.050000e+00
    endloop
  endfacet
  facet normal -7.933500e-01 -6.087657e-01 7.455230e-17
    outer loop
      vertex 2.003940e+01 2.003940e+01 2.664535e-15
      vertex 2.454320e+01 1.417000e+01 3.552714e-15
      vertex 2.454320e+01 1.417000e+01 2.050000e+00
    endloop
  endfacet
  facet normal -7.933500e-01 -6.087657e-01 7.455230e-17
    outer loop
      vertex 2.003940e+01 2.003940e+01 2.664535e-15
      vertex 2.454320e+01 1.417000e+01 2.050000e+00
      vertex 2.003940e+01 2.003940e+01 2.050000e+00
    endloop
  endfacet
  facet normal -9.238839e-01 -3.826729e-01 4.686392e-17
    outer loop
      vertex 2.454320e+01 1.417000e+01 3.552714e-15
      vertex 2.737430e+01 7.334901e+00 4.440892e-15
      vertex 2.737430e+01 7.334901e+00 2.050000e+00
    endloop
  endfacet
  facet normal -9.238839e-01 -3.826729e-01 4.686392e-17
    outer loop
      vertex 2.454320e+01 1.417000e+01 3.552714e-15
      vertex 2.737430e+01 7.334901e+00 2.050000e+00
      vertex 2.454320e+01 1.417000e+01 2.050000e+00
    endloop
  endfacet
  facet normal -9.914441e-01 -1.305317e-01 1.598553e-17
    outer loop
      vertex 2.737430e+01 7.334901e+00 4.440892e-15
      vertex 2.834000e+01 5.209586e-07 5.329071e-15
      vertex 2.834000e+01 5.209586e-07 2.050000e+00
    endloop
  endfacet
  facet normal -9.914441e-01 -1.305317e-01 1.598553e-17
    outer loop
      vertex 2.737430e+01 7.334901e+00 4.440892e-15
      vertex 2.834000e+01 5.209586e-07 2.050000e+00
      vertex 2.737430e+01 7.334901e+00 2.050000e+00
    endloop
  endfacet
  facet normal -9.914444e-01 1.305300e-01 -1.598531e-17
    outer loop
      vertex 2.834000e+01 5.209586e-07 5.329071e-15
      vertex 2.737430e+01 -7.335000e+00 6.217249e-15
      vertex 2.737430e+01 -7.335000e+00 2.050000e+00
    endloop
  endfacet
  facet normal -9.914444e-01 1.305300e-01 -1.598531e-17
    outer loop
      vertex 2.834000e+01 5.209586e-07 5.329071e-15
      vertex 2.737430e+01 -7.335000e+00 2.050000e+00
      vertex 2.834000e+01 5.209586e-07 2.050000e+00
    endloop
  endfacet
  facet normal -9.238819e-01 3.826777e-01 -4.686450e-17
    outer loop
      vertex 2.737430e+01 -7.335000e+00 6.217249e-15
      vertex 2.454320e+01 -1.417000e+01 7.105427e-15
      vertex 2.454320e+01 -1.417000e+01 2.050000e+00
    endloop
  endfacet
  facet normal -9.238819e-01 3.826777e-01 -4.686450e-17
    outer loop
      vertex 2.737430e+01 -7.335000e+00 6.217249e-15
      vertex 2.454320e+01 -1.417000e+01 2.050000e+00
      vertex 2.737430e+01 -7.335000e+00 2.050000e+00
    endloop
  endfacet
  facet normal -3.826731e-01 9.238838e-01 -1.131431e-16
    outer loop
      vertex 1.417000e+01 -2.454320e+01 7.993606e-15
      vertex 7.334901e+00 -2.737430e+01 8.881784e-15
      vertex 7.334901e+00 -2.737430e+01 2.050000e+00
    endloop
  endfacet
  facet normal -3.826731e-01 9.238838e-01 -1.131431e-16
    outer loop
      vertex 1.417000e+01 -2.454320e+01 7.993606e-15
      vertex 7.334901e+00 -2.737430e+01 2.050000e+00
      vertex 1.417000e+01 -2.454320e+01 2.050000e+00
    endloop
  endfacet
  facet normal -1.305317e-01 9.914441e-01 -1.214169e-16
    outer loop
      vertex 7.334901e+00 -2.737430e+01 8.881784e-15
      vertex 5.209586e-07 -2.834000e+01 8.881784e-15
      vertex 5.209586e-07 -2.834000e+01 2.050000e+00
    endloop
  endfacet
  facet normal -1.305317e-01 9.914441e-01 -1.214169e-16
    outer loop
      vertex 7.334901e+00 -2.737430e+01 8.881784e-15
      vertex 5.209586e-07 -2.834000e+01 2.050000e+00
      vertex 7.334901e+00 -2.737430e+01 2.050000e+00
    endloop
  endfacet
  facet normal -6.087657e-01 7.933500e-01 -9.715735e-17
    outer loop
      vertex 2.003940e+01 -2.003940e+01 7.993606e-15
      vertex 1.417000e+01 -2.454320e+01 7.993606e-15
      vertex 1.417000e+01 -2.454320e+01 2.050000e+00
    endloop
  endfacet
  facet normal -6.087657e-01 7.933500e-01 -9.715735e-17
    outer loop
      vertex 2.003940e+01 -2.003940e+01 2.050000e+00
      vertex 2.003940e+01 -2.003940e+01 7.993606e-15
      vertex 1.417000e+01 -2.454320e+01 2.050000e+00
    endloop
  endfacet
  facet normal 0.000000e+00 -1.224647e-16 -1.000000e+00
    outer loop
      vertex 2.003940e+01 -2.003940e+01 2.050000e+00
      vertex 1.417000e+01 -2.454320e+01 2.050000e+00
      vertex 1.585640e+01 -2.324910e+01 2.050000e+00
    endloop
  endfacet
  facet normal -7.933500e-01 6.087658e-01 -7.455231e-17
    outer loop
      vertex 2.454320e+01 -1.417000e+01 2.050000e+00
      vertex 2.454320e+01 -1.417000e+01 7.105427e-15
      vertex 2.003940e+01 -2.003940e+01 7.993606e-15
    endloop
  endfacet
  facet normal -7.933500e-01 6.087658e-01 -7.455231e-17
    outer loop
      vertex 2.454320e+01 -1.417000e+01 2.050000e+00
      vertex 2.003940e+01 -2.003940e+01 7.993606e-15
      vertex 2.003940e+01 -2.003940e+01 2.050000e+00
    endloop
  endfacet
  facet normal 0.000000e+00 -1.224647e-16 -1.000000e+00
    outer loop
      vertex 2.324910e+01 -1.585640e+01 2.050000e+00
      vertex 2.454320e+01 -1.417000e+01 2.050000e+00
      vertex 2.003940e+01 -2.003940e+01 2.050000e+00
    endloop
  endfacet
  facet normal 6.087658e-01 -7.933500e-01 9.715735e-17
    outer loop
      vertex -2.003940e+01 2.003940e+01 2.050000e+00
      vertex -2.003940e+01 2.003940e+01 2.664535e-15
      vertex -1.417000e+01 2.454320e+01 2.664535e-15
    endloop
  endfacet
  facet normal 6.087658e-01 -7.933500e-01 9.715735e-17
    outer loop
      vertex -2.003940e+01 2.003940e+01 2.050000e+00
      vertex -1.417000e+01 2.454320e+01 2.664535e-15
      vertex -1.417000e+01 2.454320e+01 2.050000e+00
    endloop
  endfacet
  facet normal 0.000000e+00 1.224647e-16 1.000000e+00
    outer loop
      vertex -1.929540e+01 2.061030e+01 2.050000e+00
      vertex -2.003940e+01 2.003940e+01 2.050000e+00
      vertex -1.417000e+01 2.454320e+01 2.050000e+00
    endloop
  endfacet
  facet normal 7.933500e-01 -6.087657e-01 7.455230e-17
    outer loop
      vertex -2.454320e+01 1.417000e+01 3.552714e-15
      vertex -2.003940e+01 2.003940e+01 2.664535e-15
      vertex -2.003940e+01 2.003940e+01 2.050000e+00
    endloop
  endfacet
  facet normal 7.933500e-01 -6.087657e-01 7.455230e-17
    outer loop
      vertex -2.454320e+01 1.417000e+01 2.050000e+00
      vertex -2.454320e+01 1.417000e+01 3.552714e-15
      vertex -2.003940e+01 2.003940e+01 2.050000e+00
    endloop
  endfacet
  facet normal 0.000000e+00 1.224647e-16 1.000000e+00
    outer loop
      vertex -2.454320e+01 1.417000e+01 2.050000e+00
      vertex -2.003940e+01 2.003940e+01 2.050000e+00
      vertex -2.061030e+01 1.929540e+01 2.050000e+00
    endloop
  endfacet
  facet normal 0.000000e+00 1.224647e-16 1.000000e+00
    outer loop
      vertex 2.324910e+01 -1.585640e+01 2.050000e+00
      vertex 3.800000e+01 -2.850000e+01 2.050000e+00
      vertex 2.454320e+01 -1.417000e+01 2.050000e+00
    endloop
  endfacet
  facet normal 0.000000e+00 1.224647e-16 1.000000e+00
    outer loop
      vertex 2.454320e+01 -1.417000e+01 2.050000e+00
      vertex 3.800000e+01 -2.850000e+01 2.050000e+00
      vertex 2.737430e+01 -7.335000e+00 2.050000e+00
    endloop
  endfacet
  facet normal 0.000000e+00 1.224647e-16 1.000000e+00
    outer loop
      vertex 2.737430e+01 -7.335000e+00 2.050000e+00
      vertex 3.800000e+01 -2.850000e+01 2.050000e+00
      vertex 2.834000e+01 5.209586e-07 2.050000e+00
    endloop
  endfacet
  facet normal 0.000000e+00 1.224647e-16 1.000000e+00
    outer loop
      vertex 2.834000e+01 5.209586e-07 2.050000e+00
      vertex 3.800000e+01 -2.850000e+01 2.050000e+00
      vertex 2.850000e+01 2.850000e+01 2.050000e+00
    endloop
  endfacet
  facet normal 0.000000e+00 1.224647e-16 1.000000e+00
    outer loop
      vertex 2.737430e+01 7.334901e+00 2.050000e+00
      vertex 2.834000e+01 5.209586e-07 2.050000e+00
      vertex 2.850000e+01 2.850000e+01 2.050000e+00
    endloop
  endfacet
  facet normal 0.000000e+00 1.224647e-16 1.000000e+00
    outer loop
      vertex 2.454320e+01 1.417000e+01 2.050000e+00
      vertex 2.737430e+01 7.334901e+00 2.050000e+00
      vertex 2.850000e+01 2.850000e+01 2.050000e+00
    endloop
  endfacet
  facet normal 0.000000e+00 1.224647e-16 1.000000e+00
    outer loop
      vertex 2.003940e+01 2.003940e+01 2.050000e+00
      vertex 2.454320e+01 1.417000e+01 2.050000e+00
      vertex 2.850000e+01 2.850000e+01 2.050000e+00
    endloop
  endfacet
  facet normal 0.000000e+00 1.224647e-16 1.000000e+00
    outer loop
      vertex 1.417000e+01 2.454320e+01 2.050000e+00
      vertex 2.003940e+01 2.003940e+01 2.050000e+00
      vertex 2.850000e+01 2.850000e+01 2.050000e+00
    endloop
  endfacet
  facet normal 0.000000e+00 1.224647e-16 1.000000e+00
    outer loop
      vertex -2.850000e+01 2.850000e+01 2.050000e+00
      vertex -1.929540e+01 2.061030e+01 2.050000e+00
      vertex -1.417000e+01 2.454320e+01 2.050000e+00
    endloop
  endfacet
  facet normal 0.000000e+00 1.224647e-16 1.000000e+00
    outer loop
      vertex -2.850000e+01 2.850000e+01 2.050000e+00
      vertex -1.417000e+01 2.454320e+01 2.050000e+00
      vertex -7.335000e+00 2.737430e+01 2.050000e+00
    endloop
  endfacet
  facet normal 0.000000e+00 1.224647e-16 1.000000e+00
    outer loop
      vertex 7.334901e+00 2.737430e+01 2.050000e+00
      vertex 1.417000e+01 2.454320e+01 2.050000e+00
      vertex 2.850000e+01 2.850000e+01 2.050000e+00
    endloop
  endfacet
  facet normal 0.000000e+00 1.224647e-16 1.000000e+00
    outer loop
      vertex -2.850000e+01 2.850000e+01 2.050000e+00
      vertex -7.335000e+00 2.737430e+01 2.050000e+00
      vertex 5.209586e-07 2.834000e+01 2.050000e+00
    endloop
  endfacet
  facet normal 0.000000e+00 1.224647e-16 1.000000e+00
    outer loop
      vertex 5.209586e-07 2.834000e+01 2.050000e+00
      vertex 7.334901e+00 2.737430e+01 2.050000e+00
      vertex 2.850000e+01 2.850000e+01 2.050000e+00
    endloop
  endfacet
  facet normal 0.000000e+00 1.224647e-16 1.000000e+00
    outer loop
      vertex -2.850000e+01 2.850000e+01 2.050000e+00
      vertex 5.209586e-07 2.834000e+01 2.050000e+00
      vertex 2.850000e+01 2.850000e+01 2.050000e+00
    endloop
  endfacet
  facet normal 0.000000e+00 1.224647e-16 1.000000e+00
    outer loop
      vertex -2.850000e+01 -2.850000e+01 2.050000e+00
      vertex 2.850000e+01 -3.800000e+01 2.050000e+00
      vertex 5.209586e-07 -2.834000e+01 2.050000e+00
    endloop
  endfacet
  facet normal 0.000000e+00 1.224647e-16 1.000000e+00
    outer loop
      vertex 5.209586e-07 -2.834000e+01 2.050000e+00
      vertex 2.850000e+01 -3.800000e+01 2.050000e+00
      vertex 7.334901e+00 -2.737430e+01 2.050000e+00
    endloop
  endfacet
  facet normal 0.000000e+00 1.224647e-16 1.000000e+00
    outer loop
      vertex 7.334901e+00 -2.737430e+01 2.050000e+00
      vertex 2.850000e+01 -3.800000e+01 2.050000e+00
      vertex 1.417000e+01 -2.454320e+01 2.050000e+00
    endloop
  endfacet
  facet normal 0.000000e+00 1.224647e-16 1.000000e+00
    outer loop
      vertex 1.417000e+01 -2.454320e+01 2.050000e+00
      vertex 2.850000e+01 -3.800000e+01 2.050000e+00
      vertex 1.585640e+01 -2.324910e+01 2.050000e+00
    endloop
  endfacet
  facet normal 0.000000e+00 1.224647e-16 1.000000e+00
    outer loop
      vertex -2.850000e+01 2.850000e+01 2.050000e+00
      vertex -2.850000e+01 -2.850000e+01 2.050000e+00
      vertex -2.834000e+01 5.209586e-07 2.050000e+00
    endloop
  endfacet
  facet normal 0.000000e+00 1.224647e-16 1.000000e+00
    outer loop
      vertex -2.834000e+01 5.209586e-07 2.050000e+00
      vertex -2.850000e+01 -2.850000e+01 2.050000e+00
      vertex -2.737430e+01 -7.335000e+00 2.050000e+00
    endloop
  endfacet
  facet normal 0.000000e+00 1.224647e-16 1.000000e+00
    outer loop
      vertex -2.737430e+01 -7.335000e+00 2.050000e+00
      vertex -2.850000e+01 -2.850000e+01 2.050000e+00
      vertex -2.454320e+01 -1.417000e+01 2.050000e+00
    endloop
  endfacet
  facet normal 0.000000e+00 1.224647e-16 1.000000e+00
    outer loop
      vertex -2.454320e+01 -1.417000e+01 2.050000e+00
      vertex -2.850000e+01 -2.850000e+01 2.050000e+00
      vertex -2.003940e+01 -2.003940e+01 2.050000e+00
    endloop
  endfacet
  facet normal 0.000000e+00 1.224647e-16 1.000000e+00
    outer loop
      vertex -2.003940e+01 -2.003940e+01 2.050000e+00
      vertex -2.850000e+01 -2.850000e+01 2.050000e+00
      vertex -1.417000e+01 -2.454320e+01 2.050000e+00
    endloop
  endfacet
  facet normal 0.000000e+00 1.224647e-16 1.000000e+00
    outer loop
      vertex -1.417000e+01 -2.454320e+01 2.050000e+00
      vertex -2.850000e+01 -2.850000e+01 2.050000e+00
      vertex -7.335000e+00 -2.737430e+01 2.050000e+00
    endloop
  endfacet
  facet normal 0.000000e+00 1.224647e-16 1.000000e+00
    outer loop
      vertex -7.335000e+00 -2.737430e+01 2.050000e+00
      vertex -2.850000e+01 -2.850000e+01 2.050000e+00
      vertex 5.209586e-07 -2.834000e+01 2.050000e+00
    endloop
  endfacet
  facet normal 0.000000e+00 1.224647e-16 1.000000e+00
    outer loop
      vertex -2.850000e+01 2.850000e+01 2.050000e+00
      vertex -2.834000e+01 5.209586e-07 2.050000e+00
      vertex -2.737430e+01 7.334901e+00 2.050000e+00
    endloop
  endfacet
  facet normal 0.000000e+00 1.224647e-16 1.000000e+00
    outer loop
      vertex -2.850000e+01 2.850000e+01 2.050000e+00
      vertex -2.737430e+01 7.334901e+00 2.050000e+00
      vertex -2.454320e+01 1.417000e+01 2.050000e+00
    endloop
  endfacet
  facet normal 0.000000e+00 1.224647e-16 1.000000e+00
    outer loop
      vertex -2.850000e+01 2.850000e+01 2.050000e+00
      vertex -2.454320e+01 1.417000e+01 2.050000e+00
      vertex -2.061030e+01 1.929540e+01 2.050000e+00
    endloop
  endfacet
  facet normal 0.000000e+00 -1.224647e-16 -1.000000e+00
    outer loop
      vertex 2.454320e+01 -1.417000e+01 7.105427e-15
      vertex 4.000000e+01 -4.000000e+01 1.065814e-14
      vertex 2.003940e+01 -2.003940e+01 7.993606e-15
    endloop
  endfacet
  facet normal 0.000000e+00 -1.224647e-16 -1.000000e+00
    outer loop
      vertex 2.737430e+01 -7.335000e+00 6.217249e-15
      vertex 4.000000e+01 -4.000000e+01 1.065814e-14
      vertex 2.454320e+01 -1.417000e+01 7.105427e-15
    endloop
  endfacet
  facet normal 0.000000e+00 -1.224647e-16 -1.000000e+00
    outer loop
      vertex 4.000000e+01 4.000000e+01 0.000000e+00
      vertex 4.000000e+01 -4.000000e+01 1.065814e-14
      vertex 2.737430e+01 -7.335000e+00 6.217249e-15
    endloop
  endfacet
  facet normal 0.000000e+00 -1.224647e-16 -1.000000e+00
    outer loop
      vertex 4.000000e+01 4.000000e+01 0.000000e+00
      vertex 2.737430e+01 -7.335000e+00 6.217249e-15
      vertex 2.834000e+01 5.209586e-07 5.329071e-15
    endloop
  endfacet
  facet normal 0.000000e+00 -1.224647e-16 -1.000000e+00
    outer loop
      vertex 4.000000e+01 4.000000e+01 0.000000e+00
      vertex 2.834000e+01 5.209586e-07 5.329071e-15
      vertex 2.737430e+01 7.334901e+00 4.440892e-15
    endloop
  endfacet
  facet normal 0.000000e+00 -1.224647e-16 -1.000000e+00
    outer loop
      vertex 4.000000e+01 4.000000e+01 0.000000e+00
      vertex 2.737430e+01 7.334901e+00 4.440892e-15
      vertex 2.454320e+01 1.417000e+01 3.552714e-15
    endloop
  endfacet
  facet normal 0.000000e+00 -1.224647e-16 -1.000000e+00
    outer loop
      vertex 4.000000e+01 4.000000e+01 0.000000e+00
      vertex 2.454320e+01 1.417000e+01 3.552714e-15
      vertex 2.003940e+01 2.003940e+01 2.664535e-15
    endloop
  endfacet
  facet normal 0.000000e+00 -1.224647e-16 -1.000000e+00
    outer loop
      vertex -1.417000e+01 2.454320e+01 2.664535e-15
      vertex -2.003940e+01 2.003940e+01 2.664535e-15
      vertex -4.000000e+01 4.000000e+01 0.000000e+00
    endloop
  endfacet
  facet normal 0.000000e+00 -1.224647e-16 -1.000000e+00
    outer loop
      vertex 4.000000e+01 4.000000e+01 0.000000e+00
      vertex 2.003940e+01 2.003940e+01 2.664535e-15
      vertex 1.417000e+01 2.454320e+01 2.664535e-15
    endloop
  endfacet
  facet normal 0.000000e+00 -1.224647e-16 -1.000000e+00
    outer loop
      vertex -7.335000e+00 2.737430e+01 1.776357e-15
      vertex -1.417000e+01 2.454320e+01 2.664535e-15
      vertex -4.000000e+01 4.000000e+01 0.000000e+00
    endloop
  endfacet
  facet normal 0.000000e+00 -1.224647e-16 -1.000000e+00
    outer loop
      vertex 4.000000e+01 4.000000e+01 0.000000e+00
      vertex 1.417000e+01 2.454320e+01 2.664535e-15
      vertex 7.334901e+00 2.737430e+01 1.776357e-15
    endloop
  endfacet
  facet normal 0.000000e+00 -1.224647e-16 -1.000000e+00
    outer loop
      vertex 5.209586e-07 2.834000e+01 1.776357e-15
      vertex -7.335000e+00 2.737430e+01 1.776357e-15
      vertex -4.000000e+01 4.000000e+01 0.000000e+00
    endloop
  endfacet
  facet normal 0.000000e+00 -1.224647e-16 -1.000000e+00
    outer loop
      vertex 4.000000e+01 4.000000e+01 0.000000e+00
      vertex 7.334901e+00 2.737430e+01 1.776357e-15
      vertex 5.209586e-07 2.834000e+01 1.776357e-15
    endloop
  endfacet
  facet normal 0.000000e+00 -1.224647e-16 -1.000000e+00
    outer loop
      vertex 4.000000e+01 4.000000e+01 0.000000e+00
      vertex 5.209586e-07 2.834000e+01 1.776357e-15
      vertex -4.000000e+01 4.000000e+01 0.000000e+00
    endloop
  endfacet
  facet normal 0.000000e+00 -1.224647e-16 -1.000000e+00
    outer loop
      vertex -2.737430e+01 -7.335000e+00 6.217249e-15
      vertex -4.000000e+01 -4.000000e+01 1.065814e-14
      vertex -4.000000e+01 4.000000e+01 0.000000e+00
    endloop
  endfacet
  facet normal 0.000000e+00 -1.224647e-16 -1.000000e+00
    outer loop
      vertex -2.454320e+01 -1.417000e+01 7.105427e-15
      vertex -4.000000e+01 -4.000000e+01 1.065814e-14
      vertex -2.737430e+01 -7.335000e+00 6.217249e-15
    endloop
  endfacet
  facet normal 0.000000e+00 -1.224647e-16 -1.000000e+00
    outer loop
      vertex -2.003940e+01 -2.003940e+01 7.993606e-15
      vertex -4.000000e+01 -4.000000e+01 1.065814e-14
      vertex -2.454320e+01 -1.417000e+01 7.105427e-15
    endloop
  endfacet
  facet normal 0.000000e+00 -1.224647e-16 -1.000000e+00
    outer loop
      vertex -1.417000e+01 -2.454320e+01 7.993606e-15
      vertex -4.000000e+01 -4.000000e+01 1.065814e-14
      vertex -2.003940e+01 -2.003940e+01 7.993606e-15
    endloop
  endfacet
  facet normal 0.000000e+00 -1.224647e-16 -1.000000e+00
    outer loop
      vertex -7.335000e+00 -2.737430e+01 8.881784e-15
      vertex -4.000000e+01 -4.000000e+01 1.065814e-14
      vertex -1.417000e+01 -2.454320e+01 7.993606e-15
    endloop
  endfacet
  facet normal 0.000000e+00 -1.224647e-16 -1.000000e+00
    outer loop
      vertex 5.209586e-07 -2.834000e+01 8.881784e-15
      vertex -4.000000e+01 -4.000000e+01 1.065814e-14
      vertex -7.335000e+00 -2.737430e+01 8.881784e-15
    endloop
  endfacet
  facet normal 0.000000e+00 -1.224647e-16 -1.000000e+00
    outer loop
      vertex 4.000000e+01 -4.000000e+01 1.065814e-14
      vertex -4.000000e+01 -4.000000e+01 1.065814e-14
      vertex 5.209586e-07 -2.834000e+01 8.881784e-15
    endloop
  endfacet
  facet normal 0.000000e+00 -1.224647e-16 -1.000000e+00
    outer loop
      vertex 7.334901e+00 -2.737430e+01 8.881784e-15
      vertex 4.000000e+01 -4.000000e+01 1.065814e-14
      vertex 5.209586e-07 -2.834000e+01 8.881784e-15
    endloop
  endfacet
  facet normal 0.000000e+00 -1.224647e-16 -1.000000e+00
    outer loop
      vertex 1.417000e+01 -2.454320e+01 7.993606e-15
      vertex 4.000000e+01 -4.000000e+01 1.065814e-14
      vertex 7.334901e+00 -2.737430e+01 8.881784e-15
    endloop
  endfacet
  facet normal 0.000000e+00 -1.224647e-16 -1.000000e+00
    outer loop
      vertex 2.003940e+01 -2.003940e+01 7.993606e-15
      vertex 4.000000e+01 -4.000000e+01 1.065814e-14
      vertex 1.417000e+01 -2.454320e+01 7.993606e-15
    endloop
  endfacet
  facet normal 0.000000e+00 -1.224647e-16 -1.000000e+00
    outer loop
      vertex -2.834000e+01 5.209586e-07 5.329071e-15
      vertex -2.737430e+01 -7.335000e+00 6.217249e-15
      vertex -4.000000e+01 4.000000e+01 0.000000e+00
    endloop
  endfacet
  facet normal 0.000000e+00 -1.224647e-16 -1.000000e+00
    outer loop
      vertex -2.737430e+01 7.334901e+00 4.440892e-15
      vertex -2.834000e+01 5.209586e-07 5.329071e-15
      vertex -4.000000e+01 4.000000e+01 0.000000e+00
    endloop
  endfacet
  facet normal 0.000000e+00 -1.224647e-16 -1.000000e+00
    outer loop
      vertex -2.454320e+01 1.417000e+01 3.552714e-15
      vertex -2.737430e+01 7.334901e+00 4.440892e-15
      vertex -4.000000e+01 4.000000e+01 0.000000e+00
    endloop
  endfacet
  facet normal 0.000000e+00 -1.224647e-16 -1.000000e+00
    outer loop
      vertex -2.003940e+01 2.003940e+01 2.664535e-15
      vertex -2.454320e+01 1.417000e+01 3.552714e-15
      vertex -4.000000e+01 4.000000e+01 0.000000e+00
    endloop
  endfacet
endsolid Default
