solid Default
  facet normal 0.000000e+00 0.000000e+00 -1.000000e+00
    outer loop
      vertex -2.675000e+01 2.675000e+01 0.000000e+00
      vertex 2.675000e+01 2.675000e+01 0.000000e+00
      vertex -2.675000e+01 -2.675000e+01 0.000000e+00
    endloop
  endfacet
  facet normal 0.000000e+00 0.000000e+00 -1.000000e+00
    outer loop
      vertex 2.675000e+01 -2.675000e+01 0.000000e+00
      vertex -2.675000e+01 -2.675000e+01 0.000000e+00
      vertex 2.675000e+01 2.675000e+01 0.000000e+00
    endloop
  endfacet
  facet normal -1.000000e+00 0.000000e+00 0.000000e+00
    outer loop
      vertex -2.675000e+01 2.675000e+01 0.000000e+00
      vertex -2.675000e+01 2.675000e+01 3.000000e+00
      vertex -2.675000e+01 3.530000e+01 0.000000e+00
    endloop
  endfacet
  facet normal -1.000000e+00 -0.000000e+00 -0.000000e+00
    outer loop
      vertex -2.675000e+01 3.530000e+01 3.000000e+00
      vertex -2.675000e+01 3.530000e+01 0.000000e+00
      vertex -2.675000e+01 2.675000e+01 3.000000e+00
    endloop
  endfacet
  facet normal 1.000000e+00 0.000000e+00 0.000000e+00
    outer loop
      vertex 2.675000e+01 2.675000e+01 3.000000e+00
      vertex 2.675000e+01 2.675000e+01 0.000000e+00
      vertex 2.675000e+01 3.530000e+01 3.000000e+00
    endloop
  endfacet
  facet normal 1.000000e+00 0.000000e+00 0.000000e+00
    outer loop
      vertex 2.675000e+01 3.530000e+01 0.000000e+00
      vertex 2.675000e+01 3.530000e+01 3.000000e+00
      vertex 2.675000e+01 2.675000e+01 0.000000e+00
    endloop
  endfacet
  facet normal 0.000000e+00 1.000000e+00 0.000000e+00
    outer loop
      vertex 2.675000e+01 2.675000e+01 0.000000e+00
      vertex 2.675000e+01 2.675000e+01 3.000000e+00
      vertex 3.530000e+01 2.675000e+01 0.000000e+00
    endloop
  endfacet
  facet normal 0.000000e+00 1.000000e+00 0.000000e+00
    outer loop
      vertex 3.530000e+01 2.675000e+01 3.000000e+00
      vertex 3.530000e+01 2.675000e+01 0.000000e+00
      vertex 2.675000e+01 2.675000e+01 3.000000e+00
    endloop
  endfacet
  facet normal 0.000000e+00 -1.000000e+00 0.000000e+00
    outer loop
      vertex 2.675000e+01 -2.675000e+01 3.000000e+00
      vertex 2.675000e+01 -2.675000e+01 0.000000e+00
      vertex 3.530000e+01 -2.675000e+01 3.000000e+00
    endloop
  endfacet
  facet normal 0.000000e+00 -1.000000e+00 0.000000e+00
    outer loop
      vertex 3.530000e+01 -2.675000e+01 0.000000e+00
      vertex 3.530000e+01 -2.675000e+01 3.000000e+00
      vertex 2.675000e+01 -2.675000e+01 0.000000e+00
    endloop
  endfacet
  facet normal 1.000000e+00 0.000000e+00 0.000000e+00
    outer loop
      vertex 2.675000e+01 -2.675000e+01 0.000000e+00
      vertex 2.675000e+01 -2.675000e+01 3.000000e+00
      vertex 2.675000e+01 -3.530000e+01 0.000000e+00
    endloop
  endfacet
  facet normal 1.000000e+00 0.000000e+00 0.000000e+00
    outer loop
      vertex 2.675000e+01 -3.530000e+01 3.000000e+00
      vertex 2.675000e+01 -3.530000e+01 0.000000e+00
      vertex 2.675000e+01 -2.675000e+01 3.000000e+00
    endloop
  endfacet
  facet normal -1.000000e+00 -0.000000e+00 -0.000000e+00
    outer loop
      vertex -2.675000e+01 -2.675000e+01 3.000000e+00
      vertex -2.675000e+01 -2.675000e+01 0.000000e+00
      vertex -2.675000e+01 -3.530000e+01 3.000000e+00
    endloop
  endfacet
  facet normal -1.000000e+00 0.000000e+00 0.000000e+00
    outer loop
      vertex -2.675000e+01 -3.530000e+01 0.000000e+00
      vertex -2.675000e+01 -3.530000e+01 3.000000e+00
      vertex -2.675000e+01 -2.675000e+01 0.000000e+00
    endloop
  endfacet
  facet normal 0.000000e+00 -1.000000e+00 0.000000e+00
    outer loop
      vertex -2.675000e+01 -2.675000e+01 0.000000e+00
      vertex -2.675000e+01 -2.675000e+01 3.000000e+00
      vertex -3.530000e+01 -2.675000e+01 0.000000e+00
    endloop
  endfacet
  facet normal 0.000000e+00 -1.000000e+00 0.000000e+00
    outer loop
      vertex -3.530000e+01 -2.675000e+01 3.000000e+00
      vertex -3.530000e+01 -2.675000e+01 0.000000e+00
      vertex -2.675000e+01 -2.675000e+01 3.000000e+00
    endloop
  endfacet
  facet normal 0.000000e+00 1.000000e+00 0.000000e+00
    outer loop
      vertex -2.675000e+01 2.675000e+01 3.000000e+00
      vertex -2.675000e+01 2.675000e+01 0.000000e+00
      vertex -3.530000e+01 2.675000e+01 3.000000e+00
    endloop
  endfacet
  facet normal 0.000000e+00 1.000000e+00 0.000000e+00
    outer loop
      vertex -3.530000e+01 2.675000e+01 3.000000e+00
      vertex -2.675000e+01 2.675000e+01 0.000000e+00
      vertex -3.530000e+01 2.675000e+01 0.000000e+00
    endloop
  endfacet
  facet normal 0.000000e+00 0.000000e+00 1.000000e+00
    outer loop
      vertex 1.863480e+01 -1.863480e+01 3.000000e+00
      vertex 1.325000e+01 -2.276670e+01 3.000000e+00
      vertex 2.675000e+01 -2.675000e+01 3.000000e+00
    endloop
  endfacet
  facet normal 0.000000e+00 0.000000e+00 1.000000e+00
    outer loop
      vertex 1.325000e+01 -2.276670e+01 3.000000e+00
      vertex 6.979299e+00 -2.536410e+01 3.000000e+00
      vertex 2.675000e+01 -2.675000e+01 3.000000e+00
    endloop
  endfacet
  facet normal 0.000000e+00 0.000000e+00 1.000000e+00
    outer loop
      vertex 6.979299e+00 -2.536410e+01 3.000000e+00
      vertex 2.499988e-01 -2.625000e+01 3.000000e+00
      vertex 2.675000e+01 -2.675000e+01 3.000000e+00
    endloop
  endfacet
  facet normal 0.000000e+00 0.000000e+00 1.000000e+00
    outer loop
      vertex 2.675000e+01 -2.675000e+01 3.000000e+00
      vertex 2.499988e-01 -2.625000e+01 3.000000e+00
      vertex -2.675000e+01 -2.675000e+01 3.000000e+00
    endloop
  endfacet
  facet normal 0.000000e+00 0.000000e+00 1.000000e+00
    outer loop
      vertex 2.499988e-01 -2.625000e+01 3.000000e+00
      vertex -6.479301e+00 -2.536410e+01 3.000000e+00
      vertex -2.675000e+01 -2.675000e+01 3.000000e+00
    endloop
  endfacet
  facet normal 0.000000e+00 0.000000e+00 1.000000e+00
    outer loop
      vertex -6.479301e+00 -2.536410e+01 3.000000e+00
      vertex -1.275000e+01 -2.276670e+01 3.000000e+00
      vertex -2.675000e+01 -2.675000e+01 3.000000e+00
    endloop
  endfacet
  facet normal 0.000000e+00 0.000000e+00 1.000000e+00
    outer loop
      vertex -1.275000e+01 -2.276670e+01 3.000000e+00
      vertex -1.813480e+01 -1.863480e+01 3.000000e+00
      vertex -2.675000e+01 -2.675000e+01 3.000000e+00
    endloop
  endfacet
  facet normal 0.000000e+00 0.000000e+00 1.000000e+00
    outer loop
      vertex -1.813480e+01 -1.863480e+01 3.000000e+00
      vertex -2.226670e+01 -1.325000e+01 3.000000e+00
      vertex -2.675000e+01 -2.675000e+01 3.000000e+00
    endloop
  endfacet
  facet normal 0.000000e+00 0.000000e+00 1.000000e+00
    outer loop
      vertex -2.226670e+01 -1.325000e+01 3.000000e+00
      vertex -2.486410e+01 -6.979299e+00 3.000000e+00
      vertex -2.675000e+01 -2.675000e+01 3.000000e+00
    endloop
  endfacet
  facet normal 0.000000e+00 0.000000e+00 1.000000e+00
    outer loop
      vertex -2.486410e+01 -6.979299e+00 3.000000e+00
      vertex -2.575000e+01 -2.499988e-01 3.000000e+00
      vertex -2.675000e+01 -2.675000e+01 3.000000e+00
    endloop
  endfacet
  facet normal 0.000000e+00 0.000000e+00 1.000000e+00
    outer loop
      vertex -2.675000e+01 -2.675000e+01 3.000000e+00
      vertex -2.575000e+01 -2.499988e-01 3.000000e+00
      vertex -2.675000e+01 2.675000e+01 3.000000e+00
    endloop
  endfacet
  facet normal 0.000000e+00 0.000000e+00 1.000000e+00
    outer loop
      vertex -2.575000e+01 -2.499988e-01 3.000000e+00
      vertex -2.486410e+01 6.479301e+00 3.000000e+00
      vertex -2.675000e+01 2.675000e+01 3.000000e+00
    endloop
  endfacet
  facet normal 0.000000e+00 0.000000e+00 1.000000e+00
    outer loop
      vertex -2.486410e+01 6.479301e+00 3.000000e+00
      vertex -2.226670e+01 1.275000e+01 3.000000e+00
      vertex -2.675000e+01 2.675000e+01 3.000000e+00
    endloop
  endfacet
  facet normal 0.000000e+00 0.000000e+00 1.000000e+00
    outer loop
      vertex -2.226670e+01 1.275000e+01 3.000000e+00
      vertex -1.813480e+01 1.813480e+01 3.000000e+00
      vertex -2.675000e+01 2.675000e+01 3.000000e+00
    endloop
  endfacet
  facet normal 0.000000e+00 0.000000e+00 1.000000e+00
    outer loop
      vertex -1.813480e+01 1.813480e+01 3.000000e+00
      vertex -1.275000e+01 2.226670e+01 3.000000e+00
      vertex -2.675000e+01 2.675000e+01 3.000000e+00
    endloop
  endfacet
  facet normal 0.000000e+00 0.000000e+00 1.000000e+00
    outer loop
      vertex -1.275000e+01 2.226670e+01 3.000000e+00
      vertex -6.479301e+00 2.486410e+01 3.000000e+00
      vertex -2.675000e+01 2.675000e+01 3.000000e+00
    endloop
  endfacet
  facet normal 0.000000e+00 0.000000e+00 1.000000e+00
    outer loop
      vertex -6.479301e+00 2.486410e+01 3.000000e+00
      vertex 2.499988e-01 2.575000e+01 3.000000e+00
      vertex -2.675000e+01 2.675000e+01 3.000000e+00
    endloop
  endfacet
  facet normal 0.000000e+00 0.000000e+00 1.000000e+00
    outer loop
      vertex -2.675000e+01 2.675000e+01 3.000000e+00
      vertex 2.499988e-01 2.575000e+01 3.000000e+00
      vertex 2.675000e+01 2.675000e+01 3.000000e+00
    endloop
  endfacet
  facet normal 0.000000e+00 0.000000e+00 1.000000e+00
    outer loop
      vertex 2.499988e-01 2.575000e+01 3.000000e+00
      vertex 6.979299e+00 2.486410e+01 3.000000e+00
      vertex 2.675000e+01 2.675000e+01 3.000000e+00
    endloop
  endfacet
  facet normal 0.000000e+00 0.000000e+00 1.000000e+00
    outer loop
      vertex 6.979299e+00 2.486410e+01 3.000000e+00
      vertex 1.325000e+01 2.226670e+01 3.000000e+00
      vertex 2.675000e+01 2.675000e+01 3.000000e+00
    endloop
  endfacet
  facet normal 0.000000e+00 0.000000e+00 1.000000e+00
    outer loop
      vertex 1.325000e+01 2.226670e+01 3.000000e+00
      vertex 1.863480e+01 1.813480e+01 3.000000e+00
      vertex 2.675000e+01 2.675000e+01 3.000000e+00
    endloop
  endfacet
  facet normal 0.000000e+00 0.000000e+00 1.000000e+00
    outer loop
      vertex 1.863480e+01 1.813480e+01 3.000000e+00
      vertex 2.276670e+01 1.275000e+01 3.000000e+00
      vertex 2.675000e+01 2.675000e+01 3.000000e+00
    endloop
  endfacet
  facet normal 0.000000e+00 0.000000e+00 1.000000e+00
    outer loop
      vertex 2.276670e+01 1.275000e+01 3.000000e+00
      vertex 2.536410e+01 6.479301e+00 3.000000e+00
      vertex 2.675000e+01 2.675000e+01 3.000000e+00
    endloop
  endfacet
  facet normal 0.000000e+00 0.000000e+00 1.000000e+00
    outer loop
      vertex 2.536410e+01 6.479301e+00 3.000000e+00
      vertex 2.625000e+01 -2.499988e-01 3.000000e+00
      vertex 2.675000e+01 2.675000e+01 3.000000e+00
    endloop
  endfacet
  facet normal 0.000000e+00 0.000000e+00 1.000000e+00
    outer loop
      vertex 2.675000e+01 2.675000e+01 3.000000e+00
      vertex 2.625000e+01 -2.499988e-01 3.000000e+00
      vertex 2.675000e+01 -2.675000e+01 3.000000e+00
    endloop
  endfacet
  facet normal 0.000000e+00 0.000000e+00 1.000000e+00
    outer loop
      vertex 2.625000e+01 -2.499988e-01 3.000000e+00
      vertex 2.536410e+01 -6.979299e+00 3.000000e+00
      vertex 2.675000e+01 -2.675000e+01 3.000000e+00
    endloop
  endfacet
  facet normal 0.000000e+00 0.000000e+00 1.000000e+00
    outer loop
      vertex 2.536410e+01 -6.979299e+00 3.000000e+00
      vertex 2.276670e+01 -1.325000e+01 3.000000e+00
      vertex 2.675000e+01 -2.675000e+01 3.000000e+00
    endloop
  endfacet
  facet normal 0.000000e+00 0.000000e+00 1.000000e+00
    outer loop
      vertex 1.863480e+01 -1.863480e+01 3.000000e+00
      vertex 2.675000e+01 -2.675000e+01 3.000000e+00
      vertex 2.276670e+01 -1.325000e+01 3.000000e+00
    endloop
  endfacet
  facet normal 0.000000e+00 0.000000e+00 1.000000e+00
    outer loop
      vertex 2.499988e-01 2.575000e+01 2.850000e+01
      vertex -6.479301e+00 2.486410e+01 2.850000e+01
      vertex 6.979299e+00 2.486410e+01 2.850000e+01
    endloop
  endfacet
  facet normal 0.000000e+00 0.000000e+00 1.000000e+00
    outer loop
      vertex -6.479301e+00 2.486410e+01 2.850000e+01
      vertex -1.275000e+01 2.226670e+01 2.850000e+01
      vertex 6.979299e+00 2.486410e+01 2.850000e+01
    endloop
  endfacet
  facet normal 0.000000e+00 0.000000e+00 1.000000e+00
    outer loop
      vertex -1.275000e+01 2.226670e+01 2.850000e+01
      vertex -1.813480e+01 1.813480e+01 2.850000e+01
      vertex 6.979299e+00 2.486410e+01 2.850000e+01
    endloop
  endfacet
  facet normal 0.000000e+00 0.000000e+00 1.000000e+00
    outer loop
      vertex -1.813480e+01 1.813480e+01 2.850000e+01
      vertex -2.226670e+01 1.275000e+01 2.850000e+01
      vertex 6.979299e+00 2.486410e+01 2.850000e+01
    endloop
  endfacet
  facet normal 0.000000e+00 0.000000e+00 1.000000e+00
    outer loop
      vertex -2.226670e+01 1.275000e+01 2.850000e+01
      vertex -2.486410e+01 6.479301e+00 2.850000e+01
      vertex 6.979299e+00 2.486410e+01 2.850000e+01
    endloop
  endfacet
  facet normal 0.000000e+00 0.000000e+00 1.000000e+00
    outer loop
      vertex -2.486410e+01 6.479301e+00 2.850000e+01
      vertex -2.575000e+01 -2.499988e-01 2.850000e+01
      vertex 6.979299e+00 2.486410e+01 2.850000e+01
    endloop
  endfacet
  facet normal 0.000000e+00 0.000000e+00 1.000000e+00
    outer loop
      vertex -2.575000e+01 -2.499988e-01 2.850000e+01
      vertex -2.486410e+01 -6.979299e+00 2.850000e+01
      vertex 6.979299e+00 2.486410e+01 2.850000e+01
    endloop
  endfacet
  facet normal 0.000000e+00 0.000000e+00 1.000000e+00
    outer loop
      vertex -2.486410e+01 -6.979299e+00 2.850000e+01
      vertex -2.226670e+01 -1.325000e+01 2.850000e+01
      vertex 6.979299e+00 2.486410e+01 2.850000e+01
    endloop
  endfacet
  facet normal 0.000000e+00 0.000000e+00 1.000000e+00
    outer loop
      vertex -2.226670e+01 -1.325000e+01 2.850000e+01
      vertex -1.813480e+01 -1.863480e+01 2.850000e+01
      vertex 6.979299e+00 2.486410e+01 2.850000e+01
    endloop
  endfacet
  facet normal 0.000000e+00 0.000000e+00 1.000000e+00
    outer loop
      vertex -1.813480e+01 -1.863480e+01 2.850000e+01
      vertex -1.275000e+01 -2.276670e+01 2.850000e+01
      vertex 6.979299e+00 2.486410e+01 2.850000e+01
    endloop
  endfacet
  facet normal 0.000000e+00 0.000000e+00 1.000000e+00
    outer loop
      vertex -1.275000e+01 -2.276670e+01 2.850000e+01
      vertex -6.479301e+00 -2.536410e+01 2.850000e+01
      vertex 6.979299e+00 2.486410e+01 2.850000e+01
    endloop
  endfacet
  facet normal 0.000000e+00 0.000000e+00 1.000000e+00
    outer loop
      vertex -6.479301e+00 -2.536410e+01 2.850000e+01
      vertex 2.499988e-01 -2.625000e+01 2.850000e+01
      vertex 6.979299e+00 2.486410e+01 2.850000e+01
    endloop
  endfacet
  facet normal 0.000000e+00 0.000000e+00 1.000000e+00
    outer loop
      vertex 2.499988e-01 -2.625000e+01 2.850000e+01
      vertex 6.979299e+00 -2.536410e+01 2.850000e+01
      vertex 6.979299e+00 2.486410e+01 2.850000e+01
    endloop
  endfacet
  facet normal 0.000000e+00 0.000000e+00 1.000000e+00
    outer loop
      vertex 6.979299e+00 -2.536410e+01 2.850000e+01
      vertex 1.325000e+01 -2.276670e+01 2.850000e+01
      vertex 6.979299e+00 2.486410e+01 2.850000e+01
    endloop
  endfacet
  facet normal 0.000000e+00 0.000000e+00 1.000000e+00
    outer loop
      vertex 1.325000e+01 -2.276670e+01 2.850000e+01
      vertex 1.863480e+01 -1.863480e+01 2.850000e+01
      vertex 6.979299e+00 2.486410e+01 2.850000e+01
    endloop
  endfacet
  facet normal 0.000000e+00 0.000000e+00 1.000000e+00
    outer loop
      vertex 1.863480e+01 -1.863480e+01 2.850000e+01
      vertex 2.276670e+01 -1.325000e+01 2.850000e+01
      vertex 6.979299e+00 2.486410e+01 2.850000e+01
    endloop
  endfacet
  facet normal 0.000000e+00 0.000000e+00 1.000000e+00
    outer loop
      vertex 2.276670e+01 -1.325000e+01 2.850000e+01
      vertex 2.536410e+01 -6.979299e+00 2.850000e+01
      vertex 6.979299e+00 2.486410e+01 2.850000e+01
    endloop
  endfacet
  facet normal 0.000000e+00 0.000000e+00 1.000000e+00
    outer loop
      vertex 2.536410e+01 -6.979299e+00 2.850000e+01
      vertex 2.625000e+01 -2.499988e-01 2.850000e+01
      vertex 6.979299e+00 2.486410e+01 2.850000e+01
    endloop
  endfacet
  facet normal 0.000000e+00 0.000000e+00 1.000000e+00
    outer loop
      vertex 2.625000e+01 -2.499988e-01 2.850000e+01
      vertex 2.536410e+01 6.479301e+00 2.850000e+01
      vertex 6.979299e+00 2.486410e+01 2.850000e+01
    endloop
  endfacet
  facet normal 0.000000e+00 0.000000e+00 1.000000e+00
    outer loop
      vertex 2.536410e+01 6.479301e+00 2.850000e+01
      vertex 2.276670e+01 1.275000e+01 2.850000e+01
      vertex 6.979299e+00 2.486410e+01 2.850000e+01
    endloop
  endfacet
  facet normal 0.000000e+00 0.000000e+00 1.000000e+00
    outer loop
      vertex 2.276670e+01 1.275000e+01 2.850000e+01
      vertex 1.863480e+01 1.813480e+01 2.850000e+01
      vertex 6.979299e+00 2.486410e+01 2.850000e+01
    endloop
  endfacet
  facet normal 0.000000e+00 0.000000e+00 1.000000e+00
    outer loop
      vertex 1.325000e+01 2.226670e+01 2.850000e+01
      vertex 6.979299e+00 2.486410e+01 2.850000e+01
      vertex 1.863480e+01 1.813480e+01 2.850000e+01
    endloop
  endfacet
  facet normal -1.305221e-01 9.914454e-01 0.000000e+00
    outer loop
      vertex 2.499988e-01 2.575000e+01 2.850000e+01
      vertex 2.499988e-01 2.575000e+01 3.000000e+00
      vertex -6.479301e+00 2.486410e+01 2.850000e+01
    endloop
  endfacet
  facet normal -1.305221e-01 9.914454e-01 0.000000e+00
    outer loop
      vertex -6.479301e+00 2.486410e+01 3.000000e+00
      vertex -6.479301e+00 2.486410e+01 2.850000e+01
      vertex 2.499988e-01 2.575000e+01 3.000000e+00
    endloop
  endfacet
  facet normal -3.826822e-01 9.238800e-01 0.000000e+00
    outer loop
      vertex -6.479301e+00 2.486410e+01 2.850000e+01
      vertex -6.479301e+00 2.486410e+01 3.000000e+00
      vertex -1.275000e+01 2.226670e+01 2.850000e+01
    endloop
  endfacet
  facet normal -3.826822e-01 9.238800e-01 0.000000e+00
    outer loop
      vertex -1.275000e+01 2.226670e+01 3.000000e+00
      vertex -1.275000e+01 2.226670e+01 2.850000e+01
      vertex -6.479301e+00 2.486410e+01 3.000000e+00
    endloop
  endfacet
  facet normal -6.087612e-01 7.933536e-01 0.000000e+00
    outer loop
      vertex -1.275000e+01 2.226670e+01 2.850000e+01
      vertex -1.275000e+01 2.226670e+01 3.000000e+00
      vertex -1.813480e+01 1.813480e+01 2.850000e+01
    endloop
  endfacet
  facet normal -6.087612e-01 7.933536e-01 0.000000e+00
    outer loop
      vertex -1.813480e+01 1.813480e+01 3.000000e+00
      vertex -1.813480e+01 1.813480e+01 2.850000e+01
      vertex -1.275000e+01 2.226670e+01 3.000000e+00
    endloop
  endfacet
  facet normal -7.933536e-01 6.087612e-01 0.000000e+00
    outer loop
      vertex -1.813480e+01 1.813480e+01 2.850000e+01
      vertex -1.813480e+01 1.813480e+01 3.000000e+00
      vertex -2.226670e+01 1.275000e+01 2.850000e+01
    endloop
  endfacet
  facet normal -7.933536e-01 6.087612e-01 0.000000e+00
    outer loop
      vertex -2.226670e+01 1.275000e+01 3.000000e+00
      vertex -2.226670e+01 1.275000e+01 2.850000e+01
      vertex -1.813480e+01 1.813480e+01 3.000000e+00
    endloop
  endfacet
  facet normal -9.238800e-01 3.826822e-01 0.000000e+00
    outer loop
      vertex -2.226670e+01 1.275000e+01 2.850000e+01
      vertex -2.226670e+01 1.275000e+01 3.000000e+00
      vertex -2.486410e+01 6.479301e+00 2.850000e+01
    endloop
  endfacet
  facet normal -9.238800e-01 3.826822e-01 0.000000e+00
    outer loop
      vertex -2.486410e+01 6.479301e+00 3.000000e+00
      vertex -2.486410e+01 6.479301e+00 2.850000e+01
      vertex -2.226670e+01 1.275000e+01 3.000000e+00
    endloop
  endfacet
  facet normal -9.914454e-01 1.305221e-01 0.000000e+00
    outer loop
      vertex -2.486410e+01 6.479301e+00 2.850000e+01
      vertex -2.486410e+01 6.479301e+00 3.000000e+00
      vertex -2.575000e+01 -2.499988e-01 2.850000e+01
    endloop
  endfacet
  facet normal -9.914454e-01 1.305221e-01 0.000000e+00
    outer loop
      vertex -2.575000e+01 -2.499988e-01 3.000000e+00
      vertex -2.575000e+01 -2.499988e-01 2.850000e+01
      vertex -2.486410e+01 6.479301e+00 3.000000e+00
    endloop
  endfacet
  facet normal -9.914454e-01 -1.305221e-01 -0.000000e+00
    outer loop
      vertex -2.575000e+01 -2.499988e-01 2.850000e+01
      vertex -2.575000e+01 -2.499988e-01 3.000000e+00
      vertex -2.486410e+01 -6.979299e+00 2.850000e+01
    endloop
  endfacet
  facet normal -9.914454e-01 -1.305221e-01 0.000000e+00
    outer loop
      vertex -2.486410e+01 -6.979299e+00 3.000000e+00
      vertex -2.486410e+01 -6.979299e+00 2.850000e+01
      vertex -2.575000e+01 -2.499988e-01 3.000000e+00
    endloop
  endfacet
  facet normal -9.238800e-01 -3.826822e-01 -0.000000e+00
    outer loop
      vertex -2.486410e+01 -6.979299e+00 2.850000e+01
      vertex -2.486410e+01 -6.979299e+00 3.000000e+00
      vertex -2.226670e+01 -1.325000e+01 2.850000e+01
    endloop
  endfacet
  facet normal -9.238800e-01 -3.826822e-01 0.000000e+00
    outer loop
      vertex -2.226670e+01 -1.325000e+01 3.000000e+00
      vertex -2.226670e+01 -1.325000e+01 2.850000e+01
      vertex -2.486410e+01 -6.979299e+00 3.000000e+00
    endloop
  endfacet
  facet normal -7.933536e-01 -6.087612e-01 -0.000000e+00
    outer loop
      vertex -2.226670e+01 -1.325000e+01 2.850000e+01
      vertex -2.226670e+01 -1.325000e+01 3.000000e+00
      vertex -1.813480e+01 -1.863480e+01 2.850000e+01
    endloop
  endfacet
  facet normal -7.933536e-01 -6.087612e-01 0.000000e+00
    outer loop
      vertex -1.813480e+01 -1.863480e+01 3.000000e+00
      vertex -1.813480e+01 -1.863480e+01 2.850000e+01
      vertex -2.226670e+01 -1.325000e+01 3.000000e+00
    endloop
  endfacet
  facet normal -6.087612e-01 -7.933536e-01 -0.000000e+00
    outer loop
      vertex -1.813480e+01 -1.863480e+01 2.850000e+01
      vertex -1.813480e+01 -1.863480e+01 3.000000e+00
      vertex -1.275000e+01 -2.276670e+01 2.850000e+01
    endloop
  endfacet
  facet normal -6.087612e-01 -7.933536e-01 0.000000e+00
    outer loop
      vertex -1.275000e+01 -2.276670e+01 3.000000e+00
      vertex -1.275000e+01 -2.276670e+01 2.850000e+01
      vertex -1.813480e+01 -1.863480e+01 3.000000e+00
    endloop
  endfacet
  facet normal -3.826824e-01 -9.238800e-01 -0.000000e+00
    outer loop
      vertex -1.275000e+01 -2.276670e+01 2.850000e+01
      vertex -1.275000e+01 -2.276670e+01 3.000000e+00
      vertex -6.479301e+00 -2.536410e+01 2.850000e+01
    endloop
  endfacet
  facet normal -3.826824e-01 -9.238800e-01 0.000000e+00
    outer loop
      vertex -6.479301e+00 -2.536410e+01 3.000000e+00
      vertex -6.479301e+00 -2.536410e+01 2.850000e+01
      vertex -1.275000e+01 -2.276670e+01 3.000000e+00
    endloop
  endfacet
  facet normal -1.305217e-01 -9.914454e-01 -0.000000e+00
    outer loop
      vertex -6.479301e+00 -2.536410e+01 2.850000e+01
      vertex -6.479301e+00 -2.536410e+01 3.000000e+00
      vertex 2.499988e-01 -2.625000e+01 2.850000e+01
    endloop
  endfacet
  facet normal -1.305217e-01 -9.914454e-01 0.000000e+00
    outer loop
      vertex 2.499988e-01 -2.625000e+01 3.000000e+00
      vertex 2.499988e-01 -2.625000e+01 2.850000e+01
      vertex -6.479301e+00 -2.536410e+01 3.000000e+00
    endloop
  endfacet
  facet normal 1.305217e-01 -9.914454e-01 0.000000e+00
    outer loop
      vertex 2.499988e-01 -2.625000e+01 2.850000e+01
      vertex 2.499988e-01 -2.625000e+01 3.000000e+00
      vertex 6.979299e+00 -2.536410e+01 2.850000e+01
    endloop
  endfacet
  facet normal 1.305217e-01 -9.914454e-01 0.000000e+00
    outer loop
      vertex 6.979299e+00 -2.536410e+01 3.000000e+00
      vertex 6.979299e+00 -2.536410e+01 2.850000e+01
      vertex 2.499988e-01 -2.625000e+01 3.000000e+00
    endloop
  endfacet
  facet normal 3.826823e-01 -9.238800e-01 0.000000e+00
    outer loop
      vertex 6.979299e+00 -2.536410e+01 2.850000e+01
      vertex 6.979299e+00 -2.536410e+01 3.000000e+00
      vertex 1.325000e+01 -2.276670e+01 2.850000e+01
    endloop
  endfacet
  facet normal 3.826823e-01 -9.238800e-01 0.000000e+00
    outer loop
      vertex 1.325000e+01 -2.276670e+01 3.000000e+00
      vertex 1.325000e+01 -2.276670e+01 2.850000e+01
      vertex 6.979299e+00 -2.536410e+01 3.000000e+00
    endloop
  endfacet
  facet normal 6.087612e-01 -7.933536e-01 0.000000e+00
    outer loop
      vertex 1.325000e+01 -2.276670e+01 2.850000e+01
      vertex 1.325000e+01 -2.276670e+01 3.000000e+00
      vertex 1.863480e+01 -1.863480e+01 2.850000e+01
    endloop
  endfacet
  facet normal 6.087612e-01 -7.933536e-01 0.000000e+00
    outer loop
      vertex 1.863480e+01 -1.863480e+01 3.000000e+00
      vertex 1.863480e+01 -1.863480e+01 2.850000e+01
      vertex 1.325000e+01 -2.276670e+01 3.000000e+00
    endloop
  endfacet
  facet normal 7.933536e-01 -6.087612e-01 0.000000e+00
    outer loop
      vertex 1.863480e+01 -1.863480e+01 2.850000e+01
      vertex 1.863480e+01 -1.863480e+01 3.000000e+00
      vertex 2.276670e+01 -1.325000e+01 2.850000e+01
    endloop
  endfacet
  facet normal 7.933536e-01 -6.087612e-01 0.000000e+00
    outer loop
      vertex 2.276670e+01 -1.325000e+01 3.000000e+00
      vertex 2.276670e+01 -1.325000e+01 2.850000e+01
      vertex 1.863480e+01 -1.863480e+01 3.000000e+00
    endloop
  endfacet
  facet normal 9.238800e-01 -3.826823e-01 0.000000e+00
    outer loop
      vertex 2.276670e+01 -1.325000e+01 2.850000e+01
      vertex 2.276670e+01 -1.325000e+01 3.000000e+00
      vertex 2.536410e+01 -6.979299e+00 2.850000e+01
    endloop
  endfacet
  facet normal 9.238800e-01 -3.826823e-01 0.000000e+00
    outer loop
      vertex 2.536410e+01 -6.979299e+00 3.000000e+00
      vertex 2.536410e+01 -6.979299e+00 2.850000e+01
      vertex 2.276670e+01 -1.325000e+01 3.000000e+00
    endloop
  endfacet
  facet normal 9.914454e-01 -1.305217e-01 0.000000e+00
    outer loop
      vertex 2.536410e+01 -6.979299e+00 2.850000e+01
      vertex 2.536410e+01 -6.979299e+00 3.000000e+00
      vertex 2.625000e+01 -2.499988e-01 2.850000e+01
    endloop
  endfacet
  facet normal 9.914454e-01 -1.305217e-01 0.000000e+00
    outer loop
      vertex 2.625000e+01 -2.499988e-01 3.000000e+00
      vertex 2.625000e+01 -2.499988e-01 2.850000e+01
      vertex 2.536410e+01 -6.979299e+00 3.000000e+00
    endloop
  endfacet
  facet normal 9.914454e-01 1.305217e-01 0.000000e+00
    outer loop
      vertex 2.625000e+01 -2.499988e-01 2.850000e+01
      vertex 2.625000e+01 -2.499988e-01 3.000000e+00
      vertex 2.536410e+01 6.479301e+00 2.850000e+01
    endloop
  endfacet
  facet normal 9.914454e-01 1.305217e-01 0.000000e+00
    outer loop
      vertex 2.536410e+01 6.479301e+00 3.000000e+00
      vertex 2.536410e+01 6.479301e+00 2.850000e+01
      vertex 2.625000e+01 -2.499988e-01 3.000000e+00
    endloop
  endfacet
  facet normal 9.238800e-01 3.826824e-01 0.000000e+00
    outer loop
      vertex 2.536410e+01 6.479301e+00 2.850000e+01
      vertex 2.536410e+01 6.479301e+00 3.000000e+00
      vertex 2.276670e+01 1.275000e+01 2.850000e+01
    endloop
  endfacet
  facet normal 9.238800e-01 3.826824e-01 0.000000e+00
    outer loop
      vertex 2.276670e+01 1.275000e+01 3.000000e+00
      vertex 2.276670e+01 1.275000e+01 2.850000e+01
      vertex 2.536410e+01 6.479301e+00 3.000000e+00
    endloop
  endfacet
  facet normal 7.933536e-01 6.087612e-01 0.000000e+00
    outer loop
      vertex 2.276670e+01 1.275000e+01 2.850000e+01
      vertex 2.276670e+01 1.275000e+01 3.000000e+00
      vertex 1.863480e+01 1.813480e+01 2.850000e+01
    endloop
  endfacet
  facet normal 7.933536e-01 6.087612e-01 0.000000e+00
    outer loop
      vertex 1.863480e+01 1.813480e+01 3.000000e+00
      vertex 1.863480e+01 1.813480e+01 2.850000e+01
      vertex 2.276670e+01 1.275000e+01 3.000000e+00
    endloop
  endfacet
  facet normal 6.087612e-01 7.933536e-01 0.000000e+00
    outer loop
      vertex 1.863480e+01 1.813480e+01 2.850000e+01
      vertex 1.863480e+01 1.813480e+01 3.000000e+00
      vertex 1.325000e+01 2.226670e+01 2.850000e+01
    endloop
  endfacet
  facet normal 6.087612e-01 7.933536e-01 0.000000e+00
    outer loop
      vertex 1.325000e+01 2.226670e+01 3.000000e+00
      vertex 1.325000e+01 2.226670e+01 2.850000e+01
      vertex 1.863480e+01 1.813480e+01 3.000000e+00
    endloop
  endfacet
  facet normal 3.826822e-01 9.238800e-01 0.000000e+00
    outer loop
      vertex 1.325000e+01 2.226670e+01 2.850000e+01
      vertex 1.325000e+01 2.226670e+01 3.000000e+00
      vertex 6.979299e+00 2.486410e+01 2.850000e+01
    endloop
  endfacet
  facet normal 3.826822e-01 9.238800e-01 0.000000e+00
    outer loop
      vertex 6.979299e+00 2.486410e+01 3.000000e+00
      vertex 6.979299e+00 2.486410e+01 2.850000e+01
      vertex 1.325000e+01 2.226670e+01 3.000000e+00
    endloop
  endfacet
  facet normal 1.305221e-01 9.914454e-01 0.000000e+00
    outer loop
      vertex 6.979299e+00 2.486410e+01 2.850000e+01
      vertex 6.979299e+00 2.486410e+01 3.000000e+00
      vertex 2.499988e-01 2.575000e+01 2.850000e+01
    endloop
  endfacet
  facet normal 1.305221e-01 9.914454e-01 0.000000e+00
    outer loop
      vertex 2.499988e-01 2.575000e+01 3.000000e+00
      vertex 2.499988e-01 2.575000e+01 2.850000e+01
      vertex 6.979299e+00 2.486410e+01 3.000000e+00
    endloop
  endfacet
  facet normal 0.000000e+00 0.000000e+00 1.000000e+00
    outer loop
      vertex -2.675000e+01 -3.530000e+01 3.000000e+00
      vertex -1.155000e+01 -3.530000e+01 3.000000e+00
      vertex -2.675000e+01 -2.675000e+01 3.000000e+00
    endloop
  endfacet
  facet normal 0.000000e+00 0.000000e+00 1.000000e+00
    outer loop
      vertex -1.155000e+01 -3.530000e+01 3.000000e+00
      vertex -1.155000e+01 -2.965000e+01 3.000000e+00
      vertex -2.675000e+01 -2.675000e+01 3.000000e+00
    endloop
  endfacet
  facet normal 0.000000e+00 0.000000e+00 1.000000e+00
    outer loop
      vertex -2.675000e+01 -2.675000e+01 3.000000e+00
      vertex -1.155000e+01 -2.965000e+01 3.000000e+00
      vertex 2.675000e+01 -2.675000e+01 3.000000e+00
    endloop
  endfacet
  facet normal 0.000000e+00 0.000000e+00 1.000000e+00
    outer loop
      vertex -1.155000e+01 -2.965000e+01 3.000000e+00
      vertex 1.225000e+01 -2.965000e+01 3.000000e+00
      vertex 2.675000e+01 -2.675000e+01 3.000000e+00
    endloop
  endfacet
  facet normal 0.000000e+00 0.000000e+00 1.000000e+00
    outer loop
      vertex 2.675000e+01 -2.675000e+01 3.000000e+00
      vertex 1.225000e+01 -2.965000e+01 3.000000e+00
      vertex 2.675000e+01 -3.530000e+01 3.000000e+00
    endloop
  endfacet
  facet normal 0.000000e+00 0.000000e+00 1.000000e+00
    outer loop
      vertex 1.225000e+01 -3.530000e+01 3.000000e+00
      vertex 2.675000e+01 -3.530000e+01 3.000000e+00
      vertex 1.225000e+01 -2.965000e+01 3.000000e+00
    endloop
  endfacet
  facet normal -0.000000e+00 -1.000000e+00 -0.000000e+00
    outer loop
      vertex 2.675000e+01 -3.530000e+01 3.000000e+00
      vertex 1.225000e+01 -3.530000e+01 3.000000e+00
      vertex 2.675000e+01 -3.530000e+01 0.000000e+00
    endloop
  endfacet
  facet normal 0.000000e+00 -1.000000e+00 0.000000e+00
    outer loop
      vertex 1.225000e+01 -3.530000e+01 3.000000e+00
      vertex 1.225000e+01 -3.530000e+01 1.600000e+00
      vertex 2.675000e+01 -3.530000e+01 0.000000e+00
    endloop
  endfacet
  facet normal 0.000000e+00 -1.000000e+00 0.000000e+00
    outer loop
      vertex -2.675000e+01 -3.530000e+01 0.000000e+00
      vertex -1.155000e+01 -3.530000e+01 1.600000e+00
      vertex -2.675000e+01 -3.530000e+01 3.000000e+00
    endloop
  endfacet
  facet normal -0.000000e+00 -1.000000e+00 -0.000000e+00
    outer loop
      vertex -1.155000e+01 -3.530000e+01 3.000000e+00
      vertex -2.675000e+01 -3.530000e+01 3.000000e+00
      vertex -1.155000e+01 -3.530000e+01 1.600000e+00
    endloop
  endfacet
  facet normal 0.000000e+00 -1.000000e+00 0.000000e+00
    outer loop
      vertex 1.225000e+01 -2.965000e+01 1.600000e+00
      vertex 1.225000e+01 -2.965000e+01 3.000000e+00
      vertex -1.155000e+01 -2.965000e+01 1.600000e+00
    endloop
  endfacet
  facet normal 0.000000e+00 -1.000000e+00 0.000000e+00
    outer loop
      vertex -1.155000e+01 -2.965000e+01 3.000000e+00
      vertex -1.155000e+01 -2.965000e+01 1.600000e+00
      vertex 1.225000e+01 -2.965000e+01 3.000000e+00
    endloop
  endfacet
  facet normal -1.000000e+00 0.000000e+00 0.000000e+00
    outer loop
      vertex 1.225000e+01 -2.965000e+01 1.600000e+00
      vertex 1.225000e+01 -3.530000e+01 1.600000e+00
      vertex 1.225000e+01 -2.965000e+01 3.000000e+00
    endloop
  endfacet
  facet normal -1.000000e+00 0.000000e+00 0.000000e+00
    outer loop
      vertex 1.225000e+01 -3.530000e+01 3.000000e+00
      vertex 1.225000e+01 -2.965000e+01 3.000000e+00
      vertex 1.225000e+01 -3.530000e+01 1.600000e+00
    endloop
  endfacet
  facet normal 1.000000e+00 0.000000e+00 0.000000e+00
    outer loop
      vertex -1.155000e+01 -2.965000e+01 1.600000e+00
      vertex -1.155000e+01 -2.965000e+01 3.000000e+00
      vertex -1.155000e+01 -3.530000e+01 1.600000e+00
    endloop
  endfacet
  facet normal 1.000000e+00 0.000000e+00 0.000000e+00
    outer loop
      vertex -1.155000e+01 -3.530000e+01 3.000000e+00
      vertex -1.155000e+01 -3.530000e+01 1.600000e+00
      vertex -1.155000e+01 -2.965000e+01 3.000000e+00
    endloop
  endfacet
  facet normal 0.000000e+00 0.000000e+00 1.000000e+00
    outer loop
      vertex 3.530000e+01 -2.675000e+01 3.000000e+00
      vertex 3.530000e+01 -1.205000e+01 3.000000e+00
      vertex 2.675000e+01 -2.675000e+01 3.000000e+00
    endloop
  endfacet
  facet normal 0.000000e+00 0.000000e+00 1.000000e+00
    outer loop
      vertex 3.530000e+01 -1.205000e+01 3.000000e+00
      vertex 2.965000e+01 -1.205000e+01 3.000000e+00
      vertex 2.675000e+01 -2.675000e+01 3.000000e+00
    endloop
  endfacet
  facet normal 0.000000e+00 0.000000e+00 1.000000e+00
    outer loop
      vertex 2.675000e+01 -2.675000e+01 3.000000e+00
      vertex 2.965000e+01 -1.205000e+01 3.000000e+00
      vertex 2.675000e+01 2.675000e+01 3.000000e+00
    endloop
  endfacet
  facet normal 0.000000e+00 0.000000e+00 1.000000e+00
    outer loop
      vertex 2.965000e+01 -1.205000e+01 3.000000e+00
      vertex 2.965000e+01 1.175000e+01 3.000000e+00
      vertex 2.675000e+01 2.675000e+01 3.000000e+00
    endloop
  endfacet
  facet normal 0.000000e+00 0.000000e+00 1.000000e+00
    outer loop
      vertex 2.675000e+01 2.675000e+01 3.000000e+00
      vertex 2.965000e+01 1.175000e+01 3.000000e+00
      vertex 3.530000e+01 2.675000e+01 3.000000e+00
    endloop
  endfacet
  facet normal 0.000000e+00 0.000000e+00 1.000000e+00
    outer loop
      vertex 3.530000e+01 1.175000e+01 3.000000e+00
      vertex 3.530000e+01 2.675000e+01 3.000000e+00
      vertex 2.965000e+01 1.175000e+01 3.000000e+00
    endloop
  endfacet
  facet normal 1.000000e+00 0.000000e+00 0.000000e+00
    outer loop
      vertex 3.530000e+01 2.675000e+01 3.000000e+00
      vertex 3.530000e+01 1.175000e+01 3.000000e+00
      vertex 3.530000e+01 2.675000e+01 0.000000e+00
    endloop
  endfacet
  facet normal 1.000000e+00 0.000000e+00 0.000000e+00
    outer loop
      vertex 3.530000e+01 1.175000e+01 3.000000e+00
      vertex 3.530000e+01 1.175000e+01 1.600000e+00
      vertex 3.530000e+01 2.675000e+01 0.000000e+00
    endloop
  endfacet
  facet normal 1.000000e+00 0.000000e+00 0.000000e+00
    outer loop
      vertex 3.530000e+01 -2.675000e+01 0.000000e+00
      vertex 3.530000e+01 -1.205000e+01 1.600000e+00
      vertex 3.530000e+01 -2.675000e+01 3.000000e+00
    endloop
  endfacet
  facet normal 1.000000e+00 0.000000e+00 0.000000e+00
    outer loop
      vertex 3.530000e+01 -1.205000e+01 3.000000e+00
      vertex 3.530000e+01 -2.675000e+01 3.000000e+00
      vertex 3.530000e+01 -1.205000e+01 1.600000e+00
    endloop
  endfacet
  facet normal 1.000000e+00 0.000000e+00 0.000000e+00
    outer loop
      vertex 2.965000e+01 1.175000e+01 1.600000e+00
      vertex 2.965000e+01 1.175000e+01 3.000000e+00
      vertex 2.965000e+01 -1.205000e+01 1.600000e+00
    endloop
  endfacet
  facet normal 1.000000e+00 0.000000e+00 0.000000e+00
    outer loop
      vertex 2.965000e+01 -1.205000e+01 3.000000e+00
      vertex 2.965000e+01 -1.205000e+01 1.600000e+00
      vertex 2.965000e+01 1.175000e+01 3.000000e+00
    endloop
  endfacet
  facet normal 0.000000e+00 -1.000000e+00 0.000000e+00
    outer loop
      vertex 2.965000e+01 1.175000e+01 1.600000e+00
      vertex 3.530000e+01 1.175000e+01 1.600000e+00
      vertex 2.965000e+01 1.175000e+01 3.000000e+00
    endloop
  endfacet
  facet normal -0.000000e+00 -1.000000e+00 -0.000000e+00
    outer loop
      vertex 3.530000e+01 1.175000e+01 3.000000e+00
      vertex 2.965000e+01 1.175000e+01 3.000000e+00
      vertex 3.530000e+01 1.175000e+01 1.600000e+00
    endloop
  endfacet
  facet normal 0.000000e+00 1.000000e+00 0.000000e+00
    outer loop
      vertex 2.965000e+01 -1.205000e+01 1.600000e+00
      vertex 2.965000e+01 -1.205000e+01 3.000000e+00
      vertex 3.530000e+01 -1.205000e+01 1.600000e+00
    endloop
  endfacet
  facet normal 0.000000e+00 1.000000e+00 0.000000e+00
    outer loop
      vertex 3.530000e+01 -1.205000e+01 3.000000e+00
      vertex 3.530000e+01 -1.205000e+01 1.600000e+00
      vertex 2.965000e+01 -1.205000e+01 3.000000e+00
    endloop
  endfacet
  facet normal 0.000000e+00 0.000000e+00 1.000000e+00
    outer loop
      vertex 2.675000e+01 2.675000e+01 3.000000e+00
      vertex 1.173250e+01 2.915000e+01 3.000000e+00
      vertex -2.675000e+01 2.675000e+01 3.000000e+00
    endloop
  endfacet
  facet normal 0.000000e+00 0.000000e+00 1.000000e+00
    outer loop
      vertex 1.173250e+01 2.915000e+01 3.000000e+00
      vertex -1.175000e+01 2.915000e+01 3.000000e+00
      vertex -2.675000e+01 2.675000e+01 3.000000e+00
    endloop
  endfacet
  facet normal 0.000000e+00 0.000000e+00 1.000000e+00
    outer loop
      vertex -2.675000e+01 2.675000e+01 3.000000e+00
      vertex -1.175000e+01 2.915000e+01 3.000000e+00
      vertex -2.675000e+01 3.530000e+01 3.000000e+00
    endloop
  endfacet
  facet normal 0.000000e+00 0.000000e+00 1.000000e+00
    outer loop
      vertex -1.175000e+01 3.290280e+01 3.000000e+00
      vertex -2.675000e+01 3.530000e+01 3.000000e+00
      vertex -1.175000e+01 2.915000e+01 3.000000e+00
    endloop
  endfacet
  facet normal 0.000000e+00 0.000000e+00 1.000000e+00
    outer loop
      vertex -2.675000e+01 3.530000e+01 3.000000e+00
      vertex -1.175000e+01 3.290280e+01 3.000000e+00
      vertex -1.175000e+01 3.530000e+01 3.000000e+00
    endloop
  endfacet
  facet normal 0.000000e+00 0.000000e+00 1.000000e+00
    outer loop
      vertex 2.675000e+01 3.530000e+01 3.000000e+00
      vertex 1.205000e+01 3.530000e+01 3.000000e+00
      vertex 2.675000e+01 2.675000e+01 3.000000e+00
    endloop
  endfacet
  facet normal 0.000000e+00 0.000000e+00 1.000000e+00
    outer loop
      vertex 1.205000e+01 3.530000e+01 3.000000e+00
      vertex 1.205000e+01 2.915000e+01 3.000000e+00
      vertex 2.675000e+01 2.675000e+01 3.000000e+00
    endloop
  endfacet
  facet normal 0.000000e+00 0.000000e+00 1.000000e+00
    outer loop
      vertex 1.205000e+01 2.915000e+01 3.000000e+00
      vertex 1.173250e+01 2.915000e+01 3.000000e+00
      vertex 2.675000e+01 2.675000e+01 3.000000e+00
    endloop
  endfacet
  facet normal 0.000000e+00 1.000000e+00 0.000000e+00
    outer loop
      vertex 2.675000e+01 3.530000e+01 3.000000e+00
      vertex 1.205000e+01 3.530000e+01 2.175700e+00
      vertex 1.205000e+01 3.530000e+01 3.000000e+00
    endloop
  endfacet
  facet normal 0.000000e+00 1.000000e+00 0.000000e+00
    outer loop
      vertex -2.675000e+01 3.530000e+01 3.000000e+00
      vertex -1.175000e+01 3.530000e+01 3.000000e+00
      vertex -2.675000e+01 3.530000e+01 0.000000e+00
    endloop
  endfacet
  facet normal 0.000000e+00 1.000000e+00 0.000000e+00
    outer loop
      vertex -1.175000e+01 3.530000e+01 3.000000e+00
      vertex -1.175000e+01 3.530000e+01 1.600000e+00
      vertex -2.675000e+01 3.530000e+01 0.000000e+00
    endloop
  endfacet
  facet normal 0.000000e+00 1.000000e+00 0.000000e+00
    outer loop
      vertex 2.675000e+01 3.530000e+01 0.000000e+00
      vertex 1.205000e+01 3.530000e+01 1.600000e+00
      vertex 2.675000e+01 3.530000e+01 3.000000e+00
    endloop
  endfacet
  facet normal 0.000000e+00 1.000000e+00 0.000000e+00
    outer loop
      vertex 1.205000e+01 3.530000e+01 2.175700e+00
      vertex 2.675000e+01 3.530000e+01 3.000000e+00
      vertex 1.205000e+01 3.530000e+01 1.600000e+00
    endloop
  endfacet
  facet normal 0.000000e+00 1.000000e+00 0.000000e+00
    outer loop
      vertex -1.175000e+01 2.915000e+01 1.600000e+00
      vertex -1.175000e+01 2.915000e+01 3.000000e+00
      vertex 1.205000e+01 2.915000e+01 1.600000e+00
    endloop
  endfacet
  facet normal 0.000000e+00 1.000000e+00 0.000000e+00
    outer loop
      vertex -1.175000e+01 2.915000e+01 3.000000e+00
      vertex 1.173250e+01 2.915000e+01 3.000000e+00
      vertex 1.205000e+01 2.915000e+01 1.600000e+00
    endloop
  endfacet
  facet normal 0.000000e+00 1.000000e+00 0.000000e+00
    outer loop
      vertex 1.205000e+01 2.915000e+01 3.000000e+00
      vertex 1.205000e+01 2.915000e+01 1.600000e+00
      vertex 1.173250e+01 2.915000e+01 3.000000e+00
    endloop
  endfacet
  facet normal 1.000000e+00 0.000000e+00 0.000000e+00
    outer loop
      vertex -1.175000e+01 2.915000e+01 1.600000e+00
      vertex -1.175000e+01 3.530000e+01 1.600000e+00
      vertex -1.175000e+01 2.915000e+01 3.000000e+00
    endloop
  endfacet
  facet normal 1.000000e+00 0.000000e+00 0.000000e+00
    outer loop
      vertex -1.175000e+01 3.530000e+01 3.000000e+00
      vertex -1.175000e+01 3.290280e+01 3.000000e+00
      vertex -1.175000e+01 3.530000e+01 1.600000e+00
    endloop
  endfacet
  facet normal 1.000000e+00 0.000000e+00 0.000000e+00
    outer loop
      vertex -1.175000e+01 3.290280e+01 3.000000e+00
      vertex -1.175000e+01 2.915000e+01 3.000000e+00
      vertex -1.175000e+01 3.530000e+01 1.600000e+00
    endloop
  endfacet
  facet normal -1.000000e+00 0.000000e+00 0.000000e+00
    outer loop
      vertex 1.205000e+01 2.915000e+01 1.600000e+00
      vertex 1.205000e+01 2.915000e+01 3.000000e+00
      vertex 1.205000e+01 3.530000e+01 1.600000e+00
    endloop
  endfacet
  facet normal -1.000000e+00 -0.000000e+00 -0.000000e+00
    outer loop
      vertex 1.205000e+01 3.530000e+01 3.000000e+00
      vertex 1.205000e+01 3.530000e+01 2.175700e+00
      vertex 1.205000e+01 2.915000e+01 3.000000e+00
    endloop
  endfacet
  facet normal -1.000000e+00 -0.000000e+00 -0.000000e+00
    outer loop
      vertex 1.205000e+01 3.530000e+01 2.175700e+00
      vertex 1.205000e+01 3.530000e+01 1.600000e+00
      vertex 1.205000e+01 2.915000e+01 3.000000e+00
    endloop
  endfacet
  facet normal 0.000000e+00 0.000000e+00 1.000000e+00
    outer loop
      vertex -2.917920e+01 1.155000e+01 3.000000e+00
      vertex -2.915000e+01 1.155000e+01 3.000000e+00
      vertex -2.675000e+01 2.675000e+01 3.000000e+00
    endloop
  endfacet
  facet normal 0.000000e+00 0.000000e+00 1.000000e+00
    outer loop
      vertex -2.675000e+01 2.675000e+01 3.000000e+00
      vertex -2.915000e+01 1.155000e+01 3.000000e+00
      vertex -2.675000e+01 -2.675000e+01 3.000000e+00
    endloop
  endfacet
  facet normal 0.000000e+00 0.000000e+00 1.000000e+00
    outer loop
      vertex -2.915000e+01 1.155000e+01 3.000000e+00
      vertex -2.915000e+01 -1.225000e+01 3.000000e+00
      vertex -2.675000e+01 -2.675000e+01 3.000000e+00
    endloop
  endfacet
  facet normal 0.000000e+00 0.000000e+00 1.000000e+00
    outer loop
      vertex -2.675000e+01 -2.675000e+01 3.000000e+00
      vertex -2.915000e+01 -1.225000e+01 3.000000e+00
      vertex -3.530000e+01 -2.675000e+01 3.000000e+00
    endloop
  endfacet
  facet normal 0.000000e+00 0.000000e+00 1.000000e+00
    outer loop
      vertex -3.298270e+01 -1.225000e+01 3.000000e+00
      vertex -3.530000e+01 -2.675000e+01 3.000000e+00
      vertex -2.915000e+01 -1.225000e+01 3.000000e+00
    endloop
  endfacet
  facet normal 0.000000e+00 0.000000e+00 1.000000e+00
    outer loop
      vertex -3.530000e+01 -2.675000e+01 3.000000e+00
      vertex -3.298270e+01 -1.225000e+01 3.000000e+00
      vertex -3.530000e+01 -1.225000e+01 3.000000e+00
    endloop
  endfacet
  facet normal 0.000000e+00 0.000000e+00 1.000000e+00
    outer loop
      vertex -2.675000e+01 2.675000e+01 3.000000e+00
      vertex -3.530000e+01 2.675000e+01 3.000000e+00
      vertex -2.917920e+01 1.155000e+01 3.000000e+00
    endloop
  endfacet
  facet normal 0.000000e+00 0.000000e+00 1.000000e+00
    outer loop
      vertex -3.530000e+01 1.155000e+01 3.000000e+00
      vertex -2.917920e+01 1.155000e+01 3.000000e+00
      vertex -3.530000e+01 2.675000e+01 3.000000e+00
    endloop
  endfacet
  facet normal -1.000000e+00 0.000000e+00 0.000000e+00
    outer loop
      vertex -3.530000e+01 2.675000e+01 3.000000e+00
      vertex -3.530000e+01 1.155000e+01 2.147700e+00
      vertex -3.530000e+01 1.155000e+01 3.000000e+00
    endloop
  endfacet
  facet normal -1.000000e+00 0.000000e+00 0.000000e+00
    outer loop
      vertex -3.530000e+01 -2.675000e+01 3.000000e+00
      vertex -3.530000e+01 -1.225000e+01 3.000000e+00
      vertex -3.530000e+01 -2.675000e+01 0.000000e+00
    endloop
  endfacet
  facet normal -1.000000e+00 0.000000e+00 0.000000e+00
    outer loop
      vertex -3.530000e+01 -1.225000e+01 3.000000e+00
      vertex -3.530000e+01 -1.225000e+01 1.600000e+00
      vertex -3.530000e+01 -2.675000e+01 0.000000e+00
    endloop
  endfacet
  facet normal -1.000000e+00 0.000000e+00 0.000000e+00
    outer loop
      vertex -3.530000e+01 2.675000e+01 0.000000e+00
      vertex -3.530000e+01 1.155000e+01 1.600000e+00
      vertex -3.530000e+01 2.675000e+01 3.000000e+00
    endloop
  endfacet
  facet normal -1.000000e+00 0.000000e+00 0.000000e+00
    outer loop
      vertex -3.530000e+01 1.155000e+01 2.147700e+00
      vertex -3.530000e+01 2.675000e+01 3.000000e+00
      vertex -3.530000e+01 1.155000e+01 1.600000e+00
    endloop
  endfacet
  facet normal -1.000000e+00 0.000000e+00 0.000000e+00
    outer loop
      vertex -2.915000e+01 -1.225000e+01 1.600000e+00
      vertex -2.915000e+01 -1.225000e+01 3.000000e+00
      vertex -2.915000e+01 1.155000e+01 1.600000e+00
    endloop
  endfacet
  facet normal -1.000000e+00 -0.000000e+00 -0.000000e+00
    outer loop
      vertex -2.915000e+01 1.155000e+01 3.000000e+00
      vertex -2.915000e+01 1.155000e+01 1.600000e+00
      vertex -2.915000e+01 -1.225000e+01 3.000000e+00
    endloop
  endfacet
  facet normal 0.000000e+00 1.000000e+00 0.000000e+00
    outer loop
      vertex -2.915000e+01 -1.225000e+01 1.600000e+00
      vertex -3.530000e+01 -1.225000e+01 1.600000e+00
      vertex -2.915000e+01 -1.225000e+01 3.000000e+00
    endloop
  endfacet
  facet normal 0.000000e+00 1.000000e+00 0.000000e+00
    outer loop
      vertex -3.530000e+01 -1.225000e+01 3.000000e+00
      vertex -3.298270e+01 -1.225000e+01 3.000000e+00
      vertex -3.530000e+01 -1.225000e+01 1.600000e+00
    endloop
  endfacet
  facet normal 0.000000e+00 1.000000e+00 0.000000e+00
    outer loop
      vertex -3.298270e+01 -1.225000e+01 3.000000e+00
      vertex -2.915000e+01 -1.225000e+01 3.000000e+00
      vertex -3.530000e+01 -1.225000e+01 1.600000e+00
    endloop
  endfacet
  facet normal 0.000000e+00 -1.000000e+00 0.000000e+00
    outer loop
      vertex -2.915000e+01 1.155000e+01 1.600000e+00
      vertex -2.915000e+01 1.155000e+01 3.000000e+00
      vertex -3.530000e+01 1.155000e+01 1.600000e+00
    endloop
  endfacet
  facet normal 0.000000e+00 -1.000000e+00 0.000000e+00
    outer loop
      vertex -2.915000e+01 1.155000e+01 3.000000e+00
      vertex -2.917920e+01 1.155000e+01 3.000000e+00
      vertex -3.530000e+01 1.155000e+01 1.600000e+00
    endloop
  endfacet
  facet normal 0.000000e+00 -1.000000e+00 0.000000e+00
    outer loop
      vertex -3.530000e+01 1.155000e+01 3.000000e+00
      vertex -3.530000e+01 1.155000e+01 2.147700e+00
      vertex -2.917920e+01 1.155000e+01 3.000000e+00
    endloop
  endfacet
  facet normal 0.000000e+00 -1.000000e+00 0.000000e+00
    outer loop
      vertex -3.530000e+01 1.155000e+01 2.147700e+00
      vertex -3.530000e+01 1.155000e+01 1.600000e+00
      vertex -2.917920e+01 1.155000e+01 3.000000e+00
    endloop
  endfacet
  facet normal 0.000000e+00 0.000000e+00 -1.000000e+00
    outer loop
      vertex 5.033999e+00 -3.022050e+01 0.000000e+00
      vertex 5.033999e+00 -3.005000e+01 0.000000e+00
      vertex 2.675000e+01 -2.675000e+01 0.000000e+00
    endloop
  endfacet
  facet normal 0.000000e+00 0.000000e+00 -1.000000e+00
    outer loop
      vertex 2.675000e+01 -2.675000e+01 0.000000e+00
      vertex 5.033999e+00 -3.005000e+01 0.000000e+00
      vertex -2.675000e+01 -2.675000e+01 0.000000e+00
    endloop
  endfacet
  facet normal 0.000000e+00 0.000000e+00 -1.000000e+00
    outer loop
      vertex 5.033999e+00 -3.005000e+01 0.000000e+00
      vertex -2.740001e+00 -3.005000e+01 0.000000e+00
      vertex -2.675000e+01 -2.675000e+01 0.000000e+00
    endloop
  endfacet
  facet normal 0.000000e+00 0.000000e+00 -1.000000e+00
    outer loop
      vertex -2.675000e+01 -2.675000e+01 0.000000e+00
      vertex -2.740001e+00 -3.005000e+01 0.000000e+00
      vertex -2.675000e+01 -3.530000e+01 0.000000e+00
    endloop
  endfacet
  facet normal 0.000000e+00 0.000000e+00 -1.000000e+00
    outer loop
      vertex -2.740001e+00 -3.146290e+01 0.000000e+00
      vertex -2.675000e+01 -3.530000e+01 0.000000e+00
      vertex -2.740001e+00 -3.005000e+01 0.000000e+00
    endloop
  endfacet
  facet normal 0.000000e+00 0.000000e+00 -1.000000e+00
    outer loop
      vertex -2.675000e+01 -3.530000e+01 0.000000e+00
      vertex -2.740001e+00 -3.146290e+01 0.000000e+00
      vertex -2.740001e+00 -3.530000e+01 0.000000e+00
    endloop
  endfacet
  facet normal 0.000000e+00 0.000000e+00 -1.000000e+00
    outer loop
      vertex 2.675000e+01 -3.530000e+01 0.000000e+00
      vertex 5.033999e+00 -3.530000e+01 0.000000e+00
      vertex 2.675000e+01 -2.675000e+01 0.000000e+00
    endloop
  endfacet
  facet normal 0.000000e+00 0.000000e+00 -1.000000e+00
    outer loop
      vertex 5.033999e+00 -3.022050e+01 0.000000e+00
      vertex 2.675000e+01 -2.675000e+01 0.000000e+00
      vertex 5.033999e+00 -3.530000e+01 0.000000e+00
    endloop
  endfacet
  facet normal 0.000000e+00 -1.000000e+00 0.000000e+00
    outer loop
      vertex 2.675000e+01 -3.530000e+01 0.000000e+00
      vertex 1.225000e+01 -3.530000e+01 1.600000e+00
      vertex 5.033999e+00 -3.530000e+01 0.000000e+00
    endloop
  endfacet
  facet normal 0.000000e+00 -1.000000e+00 0.000000e+00
    outer loop
      vertex 5.033999e+00 -3.530000e+01 1.303900e+00
      vertex 5.033999e+00 -3.530000e+01 0.000000e+00
      vertex 1.225000e+01 -3.530000e+01 1.600000e+00
    endloop
  endfacet
  facet normal 0.000000e+00 -1.000000e+00 0.000000e+00
    outer loop
      vertex -2.675000e+01 -3.530000e+01 0.000000e+00
      vertex -2.740001e+00 -3.530000e+01 0.000000e+00
      vertex -2.740001e+00 -3.530000e+01 9.850000e-01
    endloop
  endfacet
  facet normal 0.000000e+00 -1.000000e+00 0.000000e+00
    outer loop
      vertex -2.675000e+01 -3.530000e+01 0.000000e+00
      vertex -2.740001e+00 -3.530000e+01 9.850000e-01
      vertex -1.155000e+01 -3.530000e+01 1.600000e+00
    endloop
  endfacet
  facet normal -0.000000e+00 -1.000000e+00 -0.000000e+00
    outer loop
      vertex -2.740001e+00 -3.530000e+01 1.600000e+00
      vertex -1.155000e+01 -3.530000e+01 1.600000e+00
      vertex -2.740001e+00 -3.530000e+01 9.850000e-01
    endloop
  endfacet
  facet normal 0.000000e+00 -1.000000e+00 0.000000e+00
    outer loop
      vertex 1.225000e+01 -3.530000e+01 1.600000e+00
      vertex 5.033999e+00 -3.530000e+01 1.600000e+00
      vertex 5.033999e+00 -3.530000e+01 1.303900e+00
    endloop
  endfacet
  facet normal 0.000000e+00 0.000000e+00 1.000000e+00
    outer loop
      vertex -2.740001e+00 -3.174140e+01 1.600000e+00
      vertex -2.740001e+00 -3.005000e+01 1.600000e+00
      vertex -1.155000e+01 -2.965000e+01 1.600000e+00
    endloop
  endfacet
  facet normal 0.000000e+00 0.000000e+00 1.000000e+00
    outer loop
      vertex -1.155000e+01 -2.965000e+01 1.600000e+00
      vertex -2.740001e+00 -3.005000e+01 1.600000e+00
      vertex 1.225000e+01 -2.965000e+01 1.600000e+00
    endloop
  endfacet
  facet normal 0.000000e+00 0.000000e+00 1.000000e+00
    outer loop
      vertex -2.740001e+00 -3.005000e+01 1.600000e+00
      vertex 5.033999e+00 -3.005000e+01 1.600000e+00
      vertex 1.225000e+01 -2.965000e+01 1.600000e+00
    endloop
  endfacet
  facet normal 0.000000e+00 0.000000e+00 1.000000e+00
    outer loop
      vertex 1.225000e+01 -2.965000e+01 1.600000e+00
      vertex 5.033999e+00 -3.005000e+01 1.600000e+00
      vertex 1.225000e+01 -3.530000e+01 1.600000e+00
    endloop
  endfacet
  facet normal 0.000000e+00 0.000000e+00 1.000000e+00
    outer loop
      vertex 5.033999e+00 -3.358700e+01 1.600000e+00
      vertex 1.225000e+01 -3.530000e+01 1.600000e+00
      vertex 5.033999e+00 -3.005000e+01 1.600000e+00
    endloop
  endfacet
  facet normal 0.000000e+00 0.000000e+00 1.000000e+00
    outer loop
      vertex 1.225000e+01 -3.530000e+01 1.600000e+00
      vertex 5.033999e+00 -3.358700e+01 1.600000e+00
      vertex 5.033999e+00 -3.530000e+01 1.600000e+00
    endloop
  endfacet
  facet normal 0.000000e+00 0.000000e+00 1.000000e+00
    outer loop
      vertex -1.155000e+01 -2.965000e+01 1.600000e+00
      vertex -1.155000e+01 -3.530000e+01 1.600000e+00
      vertex -2.740001e+00 -3.174140e+01 1.600000e+00
    endloop
  endfacet
  facet normal 0.000000e+00 0.000000e+00 1.000000e+00
    outer loop
      vertex -2.740001e+00 -3.530000e+01 1.600000e+00
      vertex -2.740001e+00 -3.174140e+01 1.600000e+00
      vertex -1.155000e+01 -3.530000e+01 1.600000e+00
    endloop
  endfacet
  facet normal 1.000000e+00 0.000000e+00 0.000000e+00
    outer loop
      vertex -2.740001e+00 -3.530000e+01 0.000000e+00
      vertex -2.740001e+00 -3.146290e+01 0.000000e+00
      vertex -2.740001e+00 -3.530000e+01 9.850000e-01
    endloop
  endfacet
  facet normal 1.000000e+00 0.000000e+00 0.000000e+00
    outer loop
      vertex -2.740001e+00 -3.146290e+01 0.000000e+00
      vertex -2.740001e+00 -3.005000e+01 0.000000e+00
      vertex -2.740001e+00 -3.530000e+01 9.850000e-01
    endloop
  endfacet
  facet normal 1.000000e+00 0.000000e+00 0.000000e+00
    outer loop
      vertex -2.740001e+00 -3.005000e+01 0.000000e+00
      vertex -2.740001e+00 -3.005000e+01 1.600000e+00
      vertex -2.740001e+00 -3.530000e+01 9.850000e-01
    endloop
  endfacet
  facet normal 1.000000e+00 0.000000e+00 0.000000e+00
    outer loop
      vertex -2.740001e+00 -3.005000e+01 1.600000e+00
      vertex -2.740001e+00 -3.174140e+01 1.600000e+00
      vertex -2.740001e+00 -3.530000e+01 9.850000e-01
    endloop
  endfacet
  facet normal 1.000000e+00 0.000000e+00 0.000000e+00
    outer loop
      vertex -2.740001e+00 -3.530000e+01 1.600000e+00
      vertex -2.740001e+00 -3.530000e+01 9.850000e-01
      vertex -2.740001e+00 -3.174140e+01 1.600000e+00
    endloop
  endfacet
  facet normal 0.000000e+00 -1.000000e+00 0.000000e+00
    outer loop
      vertex -2.740001e+00 -3.005000e+01 0.000000e+00
      vertex 5.033999e+00 -3.005000e+01 0.000000e+00
      vertex -2.740001e+00 -3.005000e+01 1.600000e+00
    endloop
  endfacet
  facet normal -0.000000e+00 -1.000000e+00 -0.000000e+00
    outer loop
      vertex 5.033999e+00 -3.005000e+01 1.600000e+00
      vertex -2.740001e+00 -3.005000e+01 1.600000e+00
      vertex 5.033999e+00 -3.005000e+01 0.000000e+00
    endloop
  endfacet
  facet normal -1.000000e+00 0.000000e+00 0.000000e+00
    outer loop
      vertex 5.033999e+00 -3.530000e+01 0.000000e+00
      vertex 5.033999e+00 -3.530000e+01 1.303900e+00
      vertex 5.033999e+00 -3.022050e+01 0.000000e+00
    endloop
  endfacet
  facet normal -1.000000e+00 0.000000e+00 0.000000e+00
    outer loop
      vertex 5.033999e+00 -3.530000e+01 1.303900e+00
      vertex 5.033999e+00 -3.530000e+01 1.600000e+00
      vertex 5.033999e+00 -3.022050e+01 0.000000e+00
    endloop
  endfacet
  facet normal -1.000000e+00 0.000000e+00 0.000000e+00
    outer loop
      vertex 5.033999e+00 -3.530000e+01 1.600000e+00
      vertex 5.033999e+00 -3.358700e+01 1.600000e+00
      vertex 5.033999e+00 -3.022050e+01 0.000000e+00
    endloop
  endfacet
  facet normal -1.000000e+00 0.000000e+00 0.000000e+00
    outer loop
      vertex 5.033999e+00 -3.358700e+01 1.600000e+00
      vertex 5.033999e+00 -3.005000e+01 1.600000e+00
      vertex 5.033999e+00 -3.022050e+01 0.000000e+00
    endloop
  endfacet
  facet normal -1.000000e+00 0.000000e+00 0.000000e+00
    outer loop
      vertex 5.033999e+00 -3.005000e+01 0.000000e+00
      vertex 5.033999e+00 -3.022050e+01 0.000000e+00
      vertex 5.033999e+00 -3.005000e+01 1.600000e+00
    endloop
  endfacet
  facet normal 0.000000e+00 0.000000e+00 -1.000000e+00
    outer loop
      vertex 3.030040e+01 4.534001e+00 0.000000e+00
      vertex 3.005000e+01 4.534001e+00 0.000000e+00
      vertex 2.675000e+01 2.675000e+01 0.000000e+00
    endloop
  endfacet
  facet normal 0.000000e+00 0.000000e+00 -1.000000e+00
    outer loop
      vertex 2.675000e+01 2.675000e+01 0.000000e+00
      vertex 3.005000e+01 4.534001e+00 0.000000e+00
      vertex 2.675000e+01 -2.675000e+01 0.000000e+00
    endloop
  endfacet
  facet normal 0.000000e+00 0.000000e+00 -1.000000e+00
    outer loop
      vertex 3.005000e+01 4.534001e+00 0.000000e+00
      vertex 3.005000e+01 -3.239999e+00 0.000000e+00
      vertex 2.675000e+01 -2.675000e+01 0.000000e+00
    endloop
  endfacet
  facet normal 0.000000e+00 0.000000e+00 -1.000000e+00
    outer loop
      vertex 2.675000e+01 -2.675000e+01 0.000000e+00
      vertex 3.005000e+01 -3.239999e+00 0.000000e+00
      vertex 3.530000e+01 -2.675000e+01 0.000000e+00
    endloop
  endfacet
  facet normal -0.000000e+00 -0.000000e+00 -1.000000e+00
    outer loop
      vertex 3.154280e+01 -3.239999e+00 0.000000e+00
      vertex 3.530000e+01 -2.675000e+01 0.000000e+00
      vertex 3.005000e+01 -3.239999e+00 0.000000e+00
    endloop
  endfacet
  facet normal 0.000000e+00 0.000000e+00 -1.000000e+00
    outer loop
      vertex 3.530000e+01 -2.675000e+01 0.000000e+00
      vertex 3.154280e+01 -3.239999e+00 0.000000e+00
      vertex 3.530000e+01 -3.239999e+00 0.000000e+00
    endloop
  endfacet
  facet normal -0.000000e+00 -0.000000e+00 -1.000000e+00
    outer loop
      vertex 3.530000e+01 2.675000e+01 0.000000e+00
      vertex 3.530000e+01 4.534001e+00 0.000000e+00
      vertex 2.675000e+01 2.675000e+01 0.000000e+00
    endloop
  endfacet
  facet normal 0.000000e+00 0.000000e+00 -1.000000e+00
    outer loop
      vertex 3.030040e+01 4.534001e+00 0.000000e+00
      vertex 2.675000e+01 2.675000e+01 0.000000e+00
      vertex 3.530000e+01 4.534001e+00 0.000000e+00
    endloop
  endfacet
  facet normal 1.000000e+00 0.000000e+00 0.000000e+00
    outer loop
      vertex 3.530000e+01 2.675000e+01 0.000000e+00
      vertex 3.530000e+01 1.175000e+01 1.600000e+00
      vertex 3.530000e+01 4.534001e+00 0.000000e+00
    endloop
  endfacet
  facet normal 1.000000e+00 0.000000e+00 0.000000e+00
    outer loop
      vertex 3.530000e+01 4.534001e+00 1.300100e+00
      vertex 3.530000e+01 4.534001e+00 0.000000e+00
      vertex 3.530000e+01 1.175000e+01 1.600000e+00
    endloop
  endfacet
  facet normal 1.000000e+00 0.000000e+00 0.000000e+00
    outer loop
      vertex 3.530000e+01 -2.675000e+01 0.000000e+00
      vertex 3.530000e+01 -3.239999e+00 0.000000e+00
      vertex 3.530000e+01 -3.239999e+00 9.770000e-01
    endloop
  endfacet
  facet normal 1.000000e+00 0.000000e+00 0.000000e+00
    outer loop
      vertex 3.530000e+01 -2.675000e+01 0.000000e+00
      vertex 3.530000e+01 -3.239999e+00 9.770000e-01
      vertex 3.530000e+01 -1.205000e+01 1.600000e+00
    endloop
  endfacet
  facet normal 1.000000e+00 0.000000e+00 0.000000e+00
    outer loop
      vertex 3.530000e+01 -3.239999e+00 1.600000e+00
      vertex 3.530000e+01 -1.205000e+01 1.600000e+00
      vertex 3.530000e+01 -3.239999e+00 9.770000e-01
    endloop
  endfacet
  facet normal 1.000000e+00 0.000000e+00 0.000000e+00
    outer loop
      vertex 3.530000e+01 1.175000e+01 1.600000e+00
      vertex 3.530000e+01 4.534001e+00 1.600000e+00
      vertex 3.530000e+01 4.534001e+00 1.300100e+00
    endloop
  endfacet
  facet normal 0.000000e+00 0.000000e+00 1.000000e+00
    outer loop
      vertex 3.530000e+01 1.175000e+01 1.600000e+00
      vertex 3.358700e+01 4.534001e+00 1.600000e+00
      vertex 3.530000e+01 4.534001e+00 1.600000e+00
    endloop
  endfacet
  facet normal 0.000000e+00 0.000000e+00 1.000000e+00
    outer loop
      vertex 2.965000e+01 -1.205000e+01 1.600000e+00
      vertex 3.530000e+01 -1.205000e+01 1.600000e+00
      vertex 3.174140e+01 -3.239999e+00 1.600000e+00
    endloop
  endfacet
  facet normal 0.000000e+00 0.000000e+00 1.000000e+00
    outer loop
      vertex 3.530000e+01 -3.239999e+00 1.600000e+00
      vertex 3.174140e+01 -3.239999e+00 1.600000e+00
      vertex 3.530000e+01 -1.205000e+01 1.600000e+00
    endloop
  endfacet
  facet normal 0.000000e+00 0.000000e+00 1.000000e+00
    outer loop
      vertex 3.174140e+01 -3.239999e+00 1.600000e+00
      vertex 3.005000e+01 -3.239999e+00 1.600000e+00
      vertex 2.965000e+01 -1.205000e+01 1.600000e+00
    endloop
  endfacet
  facet normal 0.000000e+00 0.000000e+00 1.000000e+00
    outer loop
      vertex 2.965000e+01 -1.205000e+01 1.600000e+00
      vertex 3.005000e+01 -3.239999e+00 1.600000e+00
      vertex 2.965000e+01 1.175000e+01 1.600000e+00
    endloop
  endfacet
  facet normal 0.000000e+00 0.000000e+00 1.000000e+00
    outer loop
      vertex 3.005000e+01 -3.239999e+00 1.600000e+00
      vertex 3.005000e+01 4.534001e+00 1.600000e+00
      vertex 2.965000e+01 1.175000e+01 1.600000e+00
    endloop
  endfacet
  facet normal 0.000000e+00 0.000000e+00 1.000000e+00
    outer loop
      vertex 2.965000e+01 1.175000e+01 1.600000e+00
      vertex 3.005000e+01 4.534001e+00 1.600000e+00
      vertex 3.530000e+01 1.175000e+01 1.600000e+00
    endloop
  endfacet
  facet normal 0.000000e+00 0.000000e+00 1.000000e+00
    outer loop
      vertex 3.358700e+01 4.534001e+00 1.600000e+00
      vertex 3.530000e+01 1.175000e+01 1.600000e+00
      vertex 3.005000e+01 4.534001e+00 1.600000e+00
    endloop
  endfacet
  facet normal 0.000000e+00 1.000000e+00 0.000000e+00
    outer loop
      vertex 3.530000e+01 -3.239999e+00 0.000000e+00
      vertex 3.154280e+01 -3.239999e+00 0.000000e+00
      vertex 3.530000e+01 -3.239999e+00 9.770000e-01
    endloop
  endfacet
  facet normal 0.000000e+00 1.000000e+00 0.000000e+00
    outer loop
      vertex 3.154280e+01 -3.239999e+00 0.000000e+00
      vertex 3.005000e+01 -3.239999e+00 0.000000e+00
      vertex 3.530000e+01 -3.239999e+00 9.770000e-01
    endloop
  endfacet
  facet normal 0.000000e+00 1.000000e+00 0.000000e+00
    outer loop
      vertex 3.005000e+01 -3.239999e+00 0.000000e+00
      vertex 3.005000e+01 -3.239999e+00 1.600000e+00
      vertex 3.530000e+01 -3.239999e+00 9.770000e-01
    endloop
  endfacet
  facet normal 0.000000e+00 1.000000e+00 0.000000e+00
    outer loop
      vertex 3.005000e+01 -3.239999e+00 1.600000e+00
      vertex 3.174140e+01 -3.239999e+00 1.600000e+00
      vertex 3.530000e+01 -3.239999e+00 9.770000e-01
    endloop
  endfacet
  facet normal 0.000000e+00 1.000000e+00 0.000000e+00
    outer loop
      vertex 3.530000e+01 -3.239999e+00 1.600000e+00
      vertex 3.530000e+01 -3.239999e+00 9.770000e-01
      vertex 3.174140e+01 -3.239999e+00 1.600000e+00
    endloop
  endfacet
  facet normal 1.000000e+00 0.000000e+00 0.000000e+00
    outer loop
      vertex 3.005000e+01 -3.239999e+00 0.000000e+00
      vertex 3.005000e+01 4.534001e+00 0.000000e+00
      vertex 3.005000e+01 -3.239999e+00 1.600000e+00
    endloop
  endfacet
  facet normal 1.000000e+00 0.000000e+00 0.000000e+00
    outer loop
      vertex 3.005000e+01 4.534001e+00 1.600000e+00
      vertex 3.005000e+01 -3.239999e+00 1.600000e+00
      vertex 3.005000e+01 4.534001e+00 0.000000e+00
    endloop
  endfacet
  facet normal 0.000000e+00 -1.000000e+00 0.000000e+00
    outer loop
      vertex 3.530000e+01 4.534001e+00 0.000000e+00
      vertex 3.530000e+01 4.534001e+00 1.300100e+00
      vertex 3.030040e+01 4.534001e+00 0.000000e+00
    endloop
  endfacet
  facet normal 0.000000e+00 -1.000000e+00 0.000000e+00
    outer loop
      vertex 3.530000e+01 4.534001e+00 1.300100e+00
      vertex 3.530000e+01 4.534001e+00 1.600000e+00
      vertex 3.030040e+01 4.534001e+00 0.000000e+00
    endloop
  endfacet
  facet normal 0.000000e+00 -1.000000e+00 0.000000e+00
    outer loop
      vertex 3.530000e+01 4.534001e+00 1.600000e+00
      vertex 3.358700e+01 4.534001e+00 1.600000e+00
      vertex 3.030040e+01 4.534001e+00 0.000000e+00
    endloop
  endfacet
  facet normal 0.000000e+00 -1.000000e+00 0.000000e+00
    outer loop
      vertex 3.358700e+01 4.534001e+00 1.600000e+00
      vertex 3.005000e+01 4.534001e+00 1.600000e+00
      vertex 3.030040e+01 4.534001e+00 0.000000e+00
    endloop
  endfacet
  facet normal 0.000000e+00 -1.000000e+00 0.000000e+00
    outer loop
      vertex 3.005000e+01 4.534001e+00 0.000000e+00
      vertex 3.030040e+01 4.534001e+00 0.000000e+00
      vertex 3.005000e+01 4.534001e+00 1.600000e+00
    endloop
  endfacet
  facet normal 0.000000e+00 0.000000e+00 -1.000000e+00
    outer loop
      vertex -4.534001e+00 2.955000e+01 0.000000e+00
      vertex -2.675000e+01 2.675000e+01 0.000000e+00
      vertex -4.534001e+00 3.030040e+01 0.000000e+00
    endloop
  endfacet
  facet normal 0.000000e+00 0.000000e+00 -1.000000e+00
    outer loop
      vertex -2.675000e+01 2.675000e+01 0.000000e+00
      vertex -4.534001e+00 2.955000e+01 0.000000e+00
      vertex 2.675000e+01 2.675000e+01 0.000000e+00
    endloop
  endfacet
  facet normal 0.000000e+00 0.000000e+00 -1.000000e+00
    outer loop
      vertex -4.534001e+00 2.955000e+01 0.000000e+00
      vertex 3.239999e+00 2.955000e+01 0.000000e+00
      vertex 2.675000e+01 2.675000e+01 0.000000e+00
    endloop
  endfacet
  facet normal 0.000000e+00 0.000000e+00 -1.000000e+00
    outer loop
      vertex 2.675000e+01 2.675000e+01 0.000000e+00
      vertex 3.239999e+00 2.955000e+01 0.000000e+00
      vertex 2.675000e+01 3.530000e+01 0.000000e+00
    endloop
  endfacet
  facet normal 0.000000e+00 0.000000e+00 -1.000000e+00
    outer loop
      vertex 3.239999e+00 3.154280e+01 0.000000e+00
      vertex 2.675000e+01 3.530000e+01 0.000000e+00
      vertex 3.239999e+00 2.955000e+01 0.000000e+00
    endloop
  endfacet
  facet normal 0.000000e+00 0.000000e+00 -1.000000e+00
    outer loop
      vertex 2.675000e+01 3.530000e+01 0.000000e+00
      vertex 3.239999e+00 3.154280e+01 0.000000e+00
      vertex 3.239999e+00 3.530000e+01 0.000000e+00
    endloop
  endfacet
  facet normal 0.000000e+00 0.000000e+00 -1.000000e+00
    outer loop
      vertex -4.534001e+00 3.530000e+01 0.000000e+00
      vertex -2.675000e+01 2.675000e+01 0.000000e+00
      vertex -2.675000e+01 3.530000e+01 0.000000e+00
    endloop
  endfacet
  facet normal 0.000000e+00 0.000000e+00 -1.000000e+00
    outer loop
      vertex -4.534001e+00 3.030040e+01 0.000000e+00
      vertex -2.675000e+01 2.675000e+01 0.000000e+00
      vertex -4.534001e+00 3.530000e+01 0.000000e+00
    endloop
  endfacet
  facet normal 0.000000e+00 1.000000e+00 0.000000e+00
    outer loop
      vertex -2.675000e+01 3.530000e+01 0.000000e+00
      vertex -1.175000e+01 3.530000e+01 1.600000e+00
      vertex -4.534001e+00 3.530000e+01 1.245700e+00
    endloop
  endfacet
  facet normal 0.000000e+00 1.000000e+00 0.000000e+00
    outer loop
      vertex -4.534001e+00 3.530000e+01 1.600000e+00
      vertex -4.534001e+00 3.530000e+01 1.245700e+00
      vertex -1.175000e+01 3.530000e+01 1.600000e+00
    endloop
  endfacet
  facet normal 0.000000e+00 1.000000e+00 0.000000e+00
    outer loop
      vertex -2.675000e+01 3.530000e+01 0.000000e+00
      vertex -4.534001e+00 3.530000e+01 1.245700e+00
      vertex -4.534001e+00 3.530000e+01 0.000000e+00
    endloop
  endfacet
  facet normal 0.000000e+00 1.000000e+00 0.000000e+00
    outer loop
      vertex 2.675000e+01 3.530000e+01 0.000000e+00
      vertex 3.239999e+00 3.530000e+01 0.000000e+00
      vertex 3.239999e+00 3.530000e+01 1.506600e+00
    endloop
  endfacet
  facet normal 0.000000e+00 1.000000e+00 0.000000e+00
    outer loop
      vertex 2.675000e+01 3.530000e+01 0.000000e+00
      vertex 3.239999e+00 3.530000e+01 1.506600e+00
      vertex 1.205000e+01 3.530000e+01 1.600000e+00
    endloop
  endfacet
  facet normal 0.000000e+00 1.000000e+00 0.000000e+00
    outer loop
      vertex 3.239999e+00 3.530000e+01 1.600000e+00
      vertex 1.205000e+01 3.530000e+01 1.600000e+00
      vertex 3.239999e+00 3.530000e+01 1.506600e+00
    endloop
  endfacet
  facet normal 0.000000e+00 0.000000e+00 1.000000e+00
    outer loop
      vertex 1.205000e+01 3.530000e+01 1.600000e+00
      vertex 3.239999e+00 3.302350e+01 1.600000e+00
      vertex 1.205000e+01 2.915000e+01 1.600000e+00
    endloop
  endfacet
  facet normal 0.000000e+00 0.000000e+00 1.000000e+00
    outer loop
      vertex 3.239999e+00 3.302350e+01 1.600000e+00
      vertex 3.239999e+00 2.955000e+01 1.600000e+00
      vertex 1.205000e+01 2.915000e+01 1.600000e+00
    endloop
  endfacet
  facet normal 0.000000e+00 0.000000e+00 1.000000e+00
    outer loop
      vertex 1.205000e+01 2.915000e+01 1.600000e+00
      vertex 3.239999e+00 2.955000e+01 1.600000e+00
      vertex -1.175000e+01 2.915000e+01 1.600000e+00
    endloop
  endfacet
  facet normal 0.000000e+00 0.000000e+00 1.000000e+00
    outer loop
      vertex 3.239999e+00 2.955000e+01 1.600000e+00
      vertex -4.534001e+00 2.955000e+01 1.600000e+00
      vertex -1.175000e+01 2.915000e+01 1.600000e+00
    endloop
  endfacet
  facet normal 0.000000e+00 0.000000e+00 1.000000e+00
    outer loop
      vertex -4.534001e+00 3.101460e+01 1.600000e+00
      vertex -1.175000e+01 2.915000e+01 1.600000e+00
      vertex -4.534001e+00 2.955000e+01 1.600000e+00
    endloop
  endfacet
  facet normal 0.000000e+00 0.000000e+00 1.000000e+00
    outer loop
      vertex 1.205000e+01 3.530000e+01 1.600000e+00
      vertex 3.239999e+00 3.530000e+01 1.600000e+00
      vertex 3.239999e+00 3.302350e+01 1.600000e+00
    endloop
  endfacet
  facet normal 0.000000e+00 0.000000e+00 1.000000e+00
    outer loop
      vertex -1.175000e+01 2.915000e+01 1.600000e+00
      vertex -4.534001e+00 3.101460e+01 1.600000e+00
      vertex -4.534001e+00 3.242920e+01 1.600000e+00
    endloop
  endfacet
  facet normal 0.000000e+00 0.000000e+00 1.000000e+00
    outer loop
      vertex -1.175000e+01 3.530000e+01 1.600000e+00
      vertex -1.175000e+01 2.915000e+01 1.600000e+00
      vertex -4.534001e+00 3.530000e+01 1.600000e+00
    endloop
  endfacet
  facet normal 0.000000e+00 0.000000e+00 1.000000e+00
    outer loop
      vertex -4.534001e+00 3.242920e+01 1.600000e+00
      vertex -4.534001e+00 3.530000e+01 1.600000e+00
      vertex -1.175000e+01 2.915000e+01 1.600000e+00
    endloop
  endfacet
  facet normal -1.000000e+00 0.000000e+00 0.000000e+00
    outer loop
      vertex 3.239999e+00 3.530000e+01 0.000000e+00
      vertex 3.239999e+00 3.154280e+01 0.000000e+00
      vertex 3.239999e+00 3.530000e+01 1.506600e+00
    endloop
  endfacet
  facet normal -1.000000e+00 0.000000e+00 0.000000e+00
    outer loop
      vertex 3.239999e+00 3.154280e+01 0.000000e+00
      vertex 3.239999e+00 2.955000e+01 0.000000e+00
      vertex 3.239999e+00 3.530000e+01 1.506600e+00
    endloop
  endfacet
  facet normal -1.000000e+00 0.000000e+00 0.000000e+00
    outer loop
      vertex 3.239999e+00 2.955000e+01 0.000000e+00
      vertex 3.239999e+00 2.955000e+01 1.600000e+00
      vertex 3.239999e+00 3.530000e+01 1.506600e+00
    endloop
  endfacet
  facet normal -1.000000e+00 0.000000e+00 0.000000e+00
    outer loop
      vertex 3.239999e+00 2.955000e+01 1.600000e+00
      vertex 3.239999e+00 3.302350e+01 1.600000e+00
      vertex 3.239999e+00 3.530000e+01 1.506600e+00
    endloop
  endfacet
  facet normal -1.000000e+00 -0.000000e+00 -0.000000e+00
    outer loop
      vertex 3.239999e+00 3.530000e+01 1.600000e+00
      vertex 3.239999e+00 3.530000e+01 1.506600e+00
      vertex 3.239999e+00 3.302350e+01 1.600000e+00
    endloop
  endfacet
  facet normal 0.000000e+00 1.000000e+00 0.000000e+00
    outer loop
      vertex 3.239999e+00 2.955000e+01 0.000000e+00
      vertex -4.534001e+00 2.955000e+01 0.000000e+00
      vertex 3.239999e+00 2.955000e+01 1.600000e+00
    endloop
  endfacet
  facet normal 0.000000e+00 1.000000e+00 0.000000e+00
    outer loop
      vertex -4.534001e+00 2.955000e+01 1.600000e+00
      vertex 3.239999e+00 2.955000e+01 1.600000e+00
      vertex -4.534001e+00 2.955000e+01 0.000000e+00
    endloop
  endfacet
  facet normal 1.000000e+00 0.000000e+00 0.000000e+00
    outer loop
      vertex -4.534001e+00 3.530000e+01 0.000000e+00
      vertex -4.534001e+00 3.530000e+01 1.245700e+00
      vertex -4.534001e+00 3.030040e+01 0.000000e+00
    endloop
  endfacet
  facet normal 1.000000e+00 0.000000e+00 0.000000e+00
    outer loop
      vertex -4.534001e+00 3.530000e+01 1.245700e+00
      vertex -4.534001e+00 3.530000e+01 1.600000e+00
      vertex -4.534001e+00 3.030040e+01 0.000000e+00
    endloop
  endfacet
  facet normal 1.000000e+00 0.000000e+00 0.000000e+00
    outer loop
      vertex -4.534001e+00 3.530000e+01 1.600000e+00
      vertex -4.534001e+00 3.242920e+01 1.600000e+00
      vertex -4.534001e+00 3.030040e+01 0.000000e+00
    endloop
  endfacet
  facet normal 1.000000e+00 0.000000e+00 0.000000e+00
    outer loop
      vertex -4.534001e+00 3.242920e+01 1.600000e+00
      vertex -4.534001e+00 3.101460e+01 1.600000e+00
      vertex -4.534001e+00 3.030040e+01 0.000000e+00
    endloop
  endfacet
  facet normal 1.000000e+00 0.000000e+00 0.000000e+00
    outer loop
      vertex -4.534001e+00 3.101460e+01 1.600000e+00
      vertex -4.534001e+00 2.955000e+01 1.600000e+00
      vertex -4.534001e+00 3.030040e+01 0.000000e+00
    endloop
  endfacet
  facet normal 1.000000e+00 0.000000e+00 0.000000e+00
    outer loop
      vertex -4.534001e+00 2.955000e+01 0.000000e+00
      vertex -4.534001e+00 3.030040e+01 0.000000e+00
      vertex -4.534001e+00 2.955000e+01 1.600000e+00
    endloop
  endfacet
  facet normal 0.000000e+00 0.000000e+00 -1.000000e+00
    outer loop
      vertex -3.022050e+01 -5.033899e+00 0.000000e+00
      vertex -2.955000e+01 -5.033899e+00 0.000000e+00
      vertex -2.675000e+01 -2.675000e+01 0.000000e+00
    endloop
  endfacet
  facet normal 0.000000e+00 0.000000e+00 -1.000000e+00
    outer loop
      vertex -2.955000e+01 -5.033899e+00 0.000000e+00
      vertex -2.675000e+01 2.675000e+01 0.000000e+00
      vertex -2.675000e+01 -2.675000e+01 0.000000e+00
    endloop
  endfacet
  facet normal 0.000000e+00 0.000000e+00 -1.000000e+00
    outer loop
      vertex -2.955000e+01 2.740101e+00 0.000000e+00
      vertex -2.675000e+01 2.675000e+01 0.000000e+00
      vertex -2.955000e+01 -5.033899e+00 0.000000e+00
    endloop
  endfacet
  facet normal 0.000000e+00 0.000000e+00 -1.000000e+00
    outer loop
      vertex -2.675000e+01 2.675000e+01 0.000000e+00
      vertex -2.955000e+01 2.740101e+00 0.000000e+00
      vertex -3.530000e+01 2.675000e+01 0.000000e+00
    endloop
  endfacet
  facet normal 0.000000e+00 0.000000e+00 -1.000000e+00
    outer loop
      vertex -3.146290e+01 2.740101e+00 0.000000e+00
      vertex -3.530000e+01 2.675000e+01 0.000000e+00
      vertex -2.955000e+01 2.740101e+00 0.000000e+00
    endloop
  endfacet
  facet normal 0.000000e+00 0.000000e+00 -1.000000e+00
    outer loop
      vertex -3.530000e+01 2.675000e+01 0.000000e+00
      vertex -3.146290e+01 2.740101e+00 0.000000e+00
      vertex -3.530000e+01 2.740101e+00 0.000000e+00
    endloop
  endfacet
  facet normal 0.000000e+00 0.000000e+00 -1.000000e+00
    outer loop
      vertex -3.530000e+01 -2.675000e+01 0.000000e+00
      vertex -3.530000e+01 -5.033899e+00 0.000000e+00
      vertex -2.675000e+01 -2.675000e+01 0.000000e+00
    endloop
  endfacet
  facet normal -0.000000e+00 -0.000000e+00 -1.000000e+00
    outer loop
      vertex -3.022050e+01 -5.033899e+00 0.000000e+00
      vertex -2.675000e+01 -2.675000e+01 0.000000e+00
      vertex -3.530000e+01 -5.033899e+00 0.000000e+00
    endloop
  endfacet
  facet normal -1.000000e+00 0.000000e+00 0.000000e+00
    outer loop
      vertex -3.530000e+01 -2.675000e+01 0.000000e+00
      vertex -3.530000e+01 -1.225000e+01 1.600000e+00
      vertex -3.530000e+01 -5.033899e+00 1.217700e+00
    endloop
  endfacet
  facet normal -1.000000e+00 -0.000000e+00 -0.000000e+00
    outer loop
      vertex -3.530000e+01 -5.033899e+00 1.600000e+00
      vertex -3.530000e+01 -5.033899e+00 1.217700e+00
      vertex -3.530000e+01 -1.225000e+01 1.600000e+00
    endloop
  endfacet
  facet normal -1.000000e+00 0.000000e+00 0.000000e+00
    outer loop
      vertex -3.530000e+01 -2.675000e+01 0.000000e+00
      vertex -3.530000e+01 -5.033899e+00 1.217700e+00
      vertex -3.530000e+01 -5.033899e+00 0.000000e+00
    endloop
  endfacet
  facet normal -1.000000e+00 0.000000e+00 0.000000e+00
    outer loop
      vertex -3.530000e+01 2.675000e+01 0.000000e+00
      vertex -3.530000e+01 2.740101e+00 0.000000e+00
      vertex -3.530000e+01 2.740101e+00 1.538700e+00
    endloop
  endfacet
  facet normal -1.000000e+00 0.000000e+00 0.000000e+00
    outer loop
      vertex -3.530000e+01 2.675000e+01 0.000000e+00
      vertex -3.530000e+01 2.740101e+00 1.538700e+00
      vertex -3.530000e+01 1.155000e+01 1.600000e+00
    endloop
  endfacet
  facet normal -1.000000e+00 0.000000e+00 0.000000e+00
    outer loop
      vertex -3.530000e+01 2.740101e+00 1.600000e+00
      vertex -3.530000e+01 1.155000e+01 1.600000e+00
      vertex -3.530000e+01 2.740101e+00 1.538700e+00
    endloop
  endfacet
  facet normal 0.000000e+00 0.000000e+00 1.000000e+00
    outer loop
      vertex -3.530000e+01 1.155000e+01 1.600000e+00
      vertex -3.302350e+01 2.740101e+00 1.600000e+00
      vertex -2.915000e+01 1.155000e+01 1.600000e+00
    endloop
  endfacet
  facet normal 0.000000e+00 0.000000e+00 1.000000e+00
    outer loop
      vertex -3.302350e+01 2.740101e+00 1.600000e+00
      vertex -2.955000e+01 2.740101e+00 1.600000e+00
      vertex -2.915000e+01 1.155000e+01 1.600000e+00
    endloop
  endfacet
  facet normal 0.000000e+00 0.000000e+00 1.000000e+00
    outer loop
      vertex -2.915000e+01 1.155000e+01 1.600000e+00
      vertex -2.955000e+01 2.740101e+00 1.600000e+00
      vertex -2.915000e+01 -1.225000e+01 1.600000e+00
    endloop
  endfacet
  facet normal 0.000000e+00 0.000000e+00 1.000000e+00
    outer loop
      vertex -2.955000e+01 2.740101e+00 1.600000e+00
      vertex -2.955000e+01 -5.033899e+00 1.600000e+00
      vertex -2.915000e+01 -1.225000e+01 1.600000e+00
    endloop
  endfacet
  facet normal 0.000000e+00 0.000000e+00 1.000000e+00
    outer loop
      vertex -3.101460e+01 -5.033899e+00 1.600000e+00
      vertex -2.915000e+01 -1.225000e+01 1.600000e+00
      vertex -2.955000e+01 -5.033899e+00 1.600000e+00
    endloop
  endfacet
  facet normal 0.000000e+00 0.000000e+00 1.000000e+00
    outer loop
      vertex -3.530000e+01 1.155000e+01 1.600000e+00
      vertex -3.530000e+01 2.740101e+00 1.600000e+00
      vertex -3.302350e+01 2.740101e+00 1.600000e+00
    endloop
  endfacet
  facet normal 0.000000e+00 0.000000e+00 1.000000e+00
    outer loop
      vertex -2.915000e+01 -1.225000e+01 1.600000e+00
      vertex -3.101460e+01 -5.033899e+00 1.600000e+00
      vertex -3.231240e+01 -5.033899e+00 1.600000e+00
    endloop
  endfacet
  facet normal 0.000000e+00 0.000000e+00 1.000000e+00
    outer loop
      vertex -3.530000e+01 -1.225000e+01 1.600000e+00
      vertex -2.915000e+01 -1.225000e+01 1.600000e+00
      vertex -3.530000e+01 -5.033899e+00 1.600000e+00
    endloop
  endfacet
  facet normal 0.000000e+00 0.000000e+00 1.000000e+00
    outer loop
      vertex -3.231240e+01 -5.033899e+00 1.600000e+00
      vertex -3.530000e+01 -5.033899e+00 1.600000e+00
      vertex -2.915000e+01 -1.225000e+01 1.600000e+00
    endloop
  endfacet
  facet normal 0.000000e+00 -1.000000e+00 0.000000e+00
    outer loop
      vertex -3.530000e+01 2.740101e+00 0.000000e+00
      vertex -3.146290e+01 2.740101e+00 0.000000e+00
      vertex -3.530000e+01 2.740101e+00 1.538700e+00
    endloop
  endfacet
  facet normal 0.000000e+00 -1.000000e+00 0.000000e+00
    outer loop
      vertex -3.146290e+01 2.740101e+00 0.000000e+00
      vertex -2.955000e+01 2.740101e+00 0.000000e+00
      vertex -3.530000e+01 2.740101e+00 1.538700e+00
    endloop
  endfacet
  facet normal 0.000000e+00 -1.000000e+00 0.000000e+00
    outer loop
      vertex -2.955000e+01 2.740101e+00 0.000000e+00
      vertex -2.955000e+01 2.740101e+00 1.600000e+00
      vertex -3.530000e+01 2.740101e+00 1.538700e+00
    endloop
  endfacet
  facet normal 0.000000e+00 -1.000000e+00 0.000000e+00
    outer loop
      vertex -2.955000e+01 2.740101e+00 1.600000e+00
      vertex -3.302350e+01 2.740101e+00 1.600000e+00
      vertex -3.530000e+01 2.740101e+00 1.538700e+00
    endloop
  endfacet
  facet normal 0.000000e+00 -1.000000e+00 0.000000e+00
    outer loop
      vertex -3.530000e+01 2.740101e+00 1.600000e+00
      vertex -3.530000e+01 2.740101e+00 1.538700e+00
      vertex -3.302350e+01 2.740101e+00 1.600000e+00
    endloop
  endfacet
  facet normal -1.000000e+00 0.000000e+00 0.000000e+00
    outer loop
      vertex -2.955000e+01 2.740101e+00 0.000000e+00
      vertex -2.955000e+01 -5.033899e+00 0.000000e+00
      vertex -2.955000e+01 2.740101e+00 1.600000e+00
    endloop
  endfacet
  facet normal -1.000000e+00 0.000000e+00 0.000000e+00
    outer loop
      vertex -2.955000e+01 -5.033899e+00 1.600000e+00
      vertex -2.955000e+01 2.740101e+00 1.600000e+00
      vertex -2.955000e+01 -5.033899e+00 0.000000e+00
    endloop
  endfacet
  facet normal 0.000000e+00 1.000000e+00 0.000000e+00
    outer loop
      vertex -3.530000e+01 -5.033899e+00 0.000000e+00
      vertex -3.530000e+01 -5.033899e+00 1.217700e+00
      vertex -3.022050e+01 -5.033899e+00 0.000000e+00
    endloop
  endfacet
  facet normal 0.000000e+00 1.000000e+00 0.000000e+00
    outer loop
      vertex -3.530000e+01 -5.033899e+00 1.217700e+00
      vertex -3.530000e+01 -5.033899e+00 1.600000e+00
      vertex -3.022050e+01 -5.033899e+00 0.000000e+00
    endloop
  endfacet
  facet normal 0.000000e+00 1.000000e+00 0.000000e+00
    outer loop
      vertex -3.530000e+01 -5.033899e+00 1.600000e+00
      vertex -3.231240e+01 -5.033899e+00 1.600000e+00
      vertex -3.022050e+01 -5.033899e+00 0.000000e+00
    endloop
  endfacet
  facet normal 0.000000e+00 1.000000e+00 0.000000e+00
    outer loop
      vertex -3.231240e+01 -5.033899e+00 1.600000e+00
      vertex -3.101460e+01 -5.033899e+00 1.600000e+00
      vertex -3.022050e+01 -5.033899e+00 0.000000e+00
    endloop
  endfacet
  facet normal 0.000000e+00 1.000000e+00 0.000000e+00
    outer loop
      vertex -3.101460e+01 -5.033899e+00 1.600000e+00
      vertex -2.955000e+01 -5.033899e+00 1.600000e+00
      vertex -3.022050e+01 -5.033899e+00 0.000000e+00
    endloop
  endfacet
  facet normal 0.000000e+00 1.000000e+00 0.000000e+00
    outer loop
      vertex -2.955000e+01 -5.033899e+00 0.000000e+00
      vertex -3.022050e+01 -5.033899e+00 0.000000e+00
      vertex -2.955000e+01 -5.033899e+00 1.600000e+00
    endloop
  endfacet
endsolid Default
